solid OpenSCAD_Model
  facet normal 0 0 -1
    outer loop
      vertex 29.2403 -6 0
      vertex 29.1597 -2.21667 0
      vertex 29.2403 -2.21667 0
    endloop
  endfacet
  facet normal 0 0 -1
    outer loop
      vertex 24.5615 -2.21667 0
      vertex 29.1597 -2.21667 0
      vertex 29.2403 -6 0
    endloop
  endfacet
  facet normal 0 0 -1
    outer loop
      vertex 29.1597 -2.21667 0
      vertex 24.5615 -2.21667 0
      vertex 27.6613 1.9 0
    endloop
  endfacet
  facet normal -0 0 -1
    outer loop
      vertex 27.6613 1.9 0
      vertex 24.5615 -2.21667 0
      vertex 26.0599 1.9 0
    endloop
  endfacet
  facet normal 0 0 -1
    outer loop
      vertex 29.2403 -6 0
      vertex 23.1906 -2.21667 0
      vertex 24.5615 -2.21667 0
    endloop
  endfacet
  facet normal 0 0 -1
    outer loop
      vertex 23.1906 -2.21667 0
      vertex 20.0909 1.9 0
      vertex 21.6923 1.9 0
    endloop
  endfacet
  facet normal 0 0 -1
    outer loop
      vertex 23.1906 -2.21667 0
      vertex 18.5925 -2.21667 0
      vertex 20.0909 1.9 0
    endloop
  endfacet
  facet normal 0 0 -1
    outer loop
      vertex 29.2403 -6 0
      vertex 18.5925 -2.21667 0
      vertex 23.1906 -2.21667 0
    endloop
  endfacet
  facet normal 0 0 -1
    outer loop
      vertex 29.2403 -6 0
      vertex 17.2216 -2.21667 0
      vertex 18.5925 -2.21667 0
    endloop
  endfacet
  facet normal 0 0 -1
    outer loop
      vertex 17.2216 -2.21667 0
      vertex 14.1218 1.9 0
      vertex 15.7233 1.9 0
    endloop
  endfacet
  facet normal 0 0 -1
    outer loop
      vertex 17.2216 -2.21667 0
      vertex 12.6235 -2.21667 0
      vertex 14.1218 1.9 0
    endloop
  endfacet
  facet normal 0 0 -1
    outer loop
      vertex 29.2403 -6 0
      vertex 12.6235 -2.21667 0
      vertex 17.2216 -2.21667 0
    endloop
  endfacet
  facet normal 0 0 -1
    outer loop
      vertex 29.2403 -6 0
      vertex 11.2526 -2.21667 0
      vertex 12.6235 -2.21667 0
    endloop
  endfacet
  facet normal 0 0 -1
    outer loop
      vertex 11.2526 -2.21667 0
      vertex 8.15282 1.9 0
      vertex 9.75424 1.9 0
    endloop
  endfacet
  facet normal 0 0 -1
    outer loop
      vertex 11.2526 -2.21667 0
      vertex 6.65447 -2.21667 0
      vertex 8.15282 1.9 0
    endloop
  endfacet
  facet normal 0 0 -1
    outer loop
      vertex 29.2403 -6 0
      vertex 6.65447 -2.21667 0
      vertex 11.2526 -2.21667 0
    endloop
  endfacet
  facet normal 0 0 -1
    outer loop
      vertex 29.2403 -6 0
      vertex 5.28357 -2.21667 0
      vertex 6.65447 -2.21667 0
    endloop
  endfacet
  facet normal 0 0 -1
    outer loop
      vertex 5.28357 -2.21667 0
      vertex 2.1838 1.9 0
      vertex 3.78522 1.9 0
    endloop
  endfacet
  facet normal 0 0 -1
    outer loop
      vertex 5.28357 -2.21667 0
      vertex 0.685454 -2.21667 0
      vertex 2.1838 1.9 0
    endloop
  endfacet
  facet normal 0 0 -1
    outer loop
      vertex 29.2403 -6 0
      vertex 0.685454 -2.21667 0
      vertex 5.28357 -2.21667 0
    endloop
  endfacet
  facet normal 0 0 -1
    outer loop
      vertex 29.2403 -6 0
      vertex -0.685455 -2.21667 0
      vertex 0.685454 -2.21667 0
    endloop
  endfacet
  facet normal 0 0 -1
    outer loop
      vertex -0.685455 -2.21667 0
      vertex -3.78522 1.9 0
      vertex -2.1838 1.9 0
    endloop
  endfacet
  facet normal 0 0 -1
    outer loop
      vertex -0.685455 -2.21667 0
      vertex -5.28357 -2.21667 0
      vertex -3.78522 1.9 0
    endloop
  endfacet
  facet normal 0 0 -1
    outer loop
      vertex -29.1597 -6 0
      vertex -0.685455 -2.21667 0
      vertex 29.2403 -6 0
    endloop
  endfacet
  facet normal -0 0 -1
    outer loop
      vertex -0.685455 -2.21667 0
      vertex -29.1597 -6 0
      vertex -5.28357 -2.21667 0
    endloop
  endfacet
  facet normal 0 0 -1
    outer loop
      vertex -6.65448 -2.21667 0
      vertex -9.75424 1.9 0
      vertex -8.15282 1.9 0
    endloop
  endfacet
  facet normal 0 0 -1
    outer loop
      vertex -6.65448 -2.21667 0
      vertex -11.2526 -2.21667 0
      vertex -9.75424 1.9 0
    endloop
  endfacet
  facet normal -0 0 -1
    outer loop
      vertex -5.28357 -2.21667 0
      vertex -29.1597 -6 0
      vertex -6.65448 -2.21667 0
    endloop
  endfacet
  facet normal -0 0 -1
    outer loop
      vertex -6.65448 -2.21667 0
      vertex -29.1597 -6 0
      vertex -11.2526 -2.21667 0
    endloop
  endfacet
  facet normal 0 0 -1
    outer loop
      vertex -12.6235 -2.21667 0
      vertex -15.7233 1.9 0
      vertex -14.1218 1.9 0
    endloop
  endfacet
  facet normal 0 0 -1
    outer loop
      vertex -12.6235 -2.21667 0
      vertex -17.2216 -2.21667 0
      vertex -15.7233 1.9 0
    endloop
  endfacet
  facet normal -0 0 -1
    outer loop
      vertex -11.2526 -2.21667 0
      vertex -29.1597 -6 0
      vertex -12.6235 -2.21667 0
    endloop
  endfacet
  facet normal -0 0 -1
    outer loop
      vertex -12.6235 -2.21667 0
      vertex -29.1597 -6 0
      vertex -17.2216 -2.21667 0
    endloop
  endfacet
  facet normal 0 0 -1
    outer loop
      vertex -18.5925 -2.21667 0
      vertex -21.6923 1.9 0
      vertex -20.0909 1.9 0
    endloop
  endfacet
  facet normal 0 0 -1
    outer loop
      vertex -18.5925 -2.21667 0
      vertex -23.1906 -2.21667 0
      vertex -21.6923 1.9 0
    endloop
  endfacet
  facet normal -0 0 -1
    outer loop
      vertex -17.2216 -2.21667 0
      vertex -29.1597 -6 0
      vertex -18.5925 -2.21667 0
    endloop
  endfacet
  facet normal -0 0 -1
    outer loop
      vertex -18.5925 -2.21667 0
      vertex -29.1597 -6 0
      vertex -23.1906 -2.21667 0
    endloop
  endfacet
  facet normal 0 0 -1
    outer loop
      vertex -24.5615 -2.21667 0
      vertex -27.6613 1.9 0
      vertex -26.0599 1.9 0
    endloop
  endfacet
  facet normal -0 0 -1
    outer loop
      vertex -23.1906 -2.21667 0
      vertex -29.1597 -6 0
      vertex -24.5615 -2.21667 0
    endloop
  endfacet
  facet normal 0 0 -1
    outer loop
      vertex -29.1597 -2.21667 0
      vertex -24.5615 -2.21667 0
      vertex -29.1597 -6 0
    endloop
  endfacet
  facet normal 0 0 -1
    outer loop
      vertex -24.5615 -2.21667 0
      vertex -29.1597 -2.21667 0
      vertex -27.6613 1.9 0
    endloop
  endfacet
  facet normal -0.939693 0.34202 0
    outer loop
      vertex -29.1597 -2.21667 0
      vertex -27.6613 1.9 10
      vertex -27.6613 1.9 0
    endloop
  endfacet
  facet normal -0.939693 0.34202 0
    outer loop
      vertex -27.6613 1.9 10
      vertex -29.1597 -2.21667 0
      vertex -29.1597 -2.21667 10
    endloop
  endfacet
  facet normal 0 1 -0
    outer loop
      vertex -26.0599 1.9 0
      vertex -27.6613 1.9 10
      vertex -26.0599 1.9 10
    endloop
  endfacet
  facet normal 0 1 0
    outer loop
      vertex -27.6613 1.9 10
      vertex -26.0599 1.9 0
      vertex -27.6613 1.9 0
    endloop
  endfacet
  facet normal 0.939693 0.34202 0
    outer loop
      vertex -24.5615 -2.21667 10
      vertex -26.0599 1.9 0
      vertex -26.0599 1.9 10
    endloop
  endfacet
  facet normal 0.939693 0.34202 0
    outer loop
      vertex -26.0599 1.9 0
      vertex -24.5615 -2.21667 10
      vertex -24.5615 -2.21667 0
    endloop
  endfacet
  facet normal 0 1 -0
    outer loop
      vertex -23.1906 -2.21667 0
      vertex -24.5615 -2.21667 10
      vertex -23.1906 -2.21667 10
    endloop
  endfacet
  facet normal 0 1 0
    outer loop
      vertex -24.5615 -2.21667 10
      vertex -23.1906 -2.21667 0
      vertex -24.5615 -2.21667 0
    endloop
  endfacet
  facet normal 0 -1 0
    outer loop
      vertex -29.1597 -6 0
      vertex 29.2403 -6 10
      vertex -29.1597 -6 10
    endloop
  endfacet
  facet normal 0 -1 -0
    outer loop
      vertex 29.2403 -6 10
      vertex -29.1597 -6 0
      vertex 29.2403 -6 0
    endloop
  endfacet
  facet normal -1 0 0
    outer loop
      vertex -29.1597 -6 0
      vertex -29.1597 -2.21667 10
      vertex -29.1597 -2.21667 0
    endloop
  endfacet
  facet normal -1 -0 0
    outer loop
      vertex -29.1597 -2.21667 10
      vertex -29.1597 -6 0
      vertex -29.1597 -6 10
    endloop
  endfacet
  facet normal -0 0 1
    outer loop
      vertex 29.1597 -2.21667 10
      vertex 29.2403 -6 10
      vertex 29.2403 -2.21667 10
    endloop
  endfacet
  facet normal 0 0 1
    outer loop
      vertex 24.5615 -2.21667 10
      vertex 29.1597 -2.21667 10
      vertex 27.6613 1.9 10
    endloop
  endfacet
  facet normal 0 0 1
    outer loop
      vertex 24.5615 -2.21667 10
      vertex 27.6613 1.9 10
      vertex 26.0599 1.9 10
    endloop
  endfacet
  facet normal 0 0 1
    outer loop
      vertex 29.1597 -2.21667 10
      vertex 24.5615 -2.21667 10
      vertex 29.2403 -6 10
    endloop
  endfacet
  facet normal -0 0 1
    outer loop
      vertex 23.1906 -2.21667 10
      vertex 29.2403 -6 10
      vertex 24.5615 -2.21667 10
    endloop
  endfacet
  facet normal -0 0 1
    outer loop
      vertex 20.0909 1.9 10
      vertex 23.1906 -2.21667 10
      vertex 21.6923 1.9 10
    endloop
  endfacet
  facet normal 0 0 1
    outer loop
      vertex 18.5925 -2.21667 10
      vertex 23.1906 -2.21667 10
      vertex 20.0909 1.9 10
    endloop
  endfacet
  facet normal -0 0 1
    outer loop
      vertex 18.5925 -2.21667 10
      vertex 29.2403 -6 10
      vertex 23.1906 -2.21667 10
    endloop
  endfacet
  facet normal -0 0 1
    outer loop
      vertex 17.2216 -2.21667 10
      vertex 29.2403 -6 10
      vertex 18.5925 -2.21667 10
    endloop
  endfacet
  facet normal -0 0 1
    outer loop
      vertex 14.1218 1.9 10
      vertex 17.2216 -2.21667 10
      vertex 15.7233 1.9 10
    endloop
  endfacet
  facet normal 0 0 1
    outer loop
      vertex 12.6235 -2.21667 10
      vertex 17.2216 -2.21667 10
      vertex 14.1218 1.9 10
    endloop
  endfacet
  facet normal -0 0 1
    outer loop
      vertex 12.6235 -2.21667 10
      vertex 29.2403 -6 10
      vertex 17.2216 -2.21667 10
    endloop
  endfacet
  facet normal -0 0 1
    outer loop
      vertex 11.2526 -2.21667 10
      vertex 29.2403 -6 10
      vertex 12.6235 -2.21667 10
    endloop
  endfacet
  facet normal -0 0 1
    outer loop
      vertex 8.15282 1.9 10
      vertex 11.2526 -2.21667 10
      vertex 9.75424 1.9 10
    endloop
  endfacet
  facet normal 0 0 1
    outer loop
      vertex 6.65447 -2.21667 10
      vertex 11.2526 -2.21667 10
      vertex 8.15282 1.9 10
    endloop
  endfacet
  facet normal -0 0 1
    outer loop
      vertex 6.65447 -2.21667 10
      vertex 29.2403 -6 10
      vertex 11.2526 -2.21667 10
    endloop
  endfacet
  facet normal -0 0 1
    outer loop
      vertex 5.28357 -2.21667 10
      vertex 29.2403 -6 10
      vertex 6.65447 -2.21667 10
    endloop
  endfacet
  facet normal -0 0 1
    outer loop
      vertex 2.1838 1.9 10
      vertex 5.28357 -2.21667 10
      vertex 3.78522 1.9 10
    endloop
  endfacet
  facet normal 0 0 1
    outer loop
      vertex 0.685454 -2.21667 10
      vertex 5.28357 -2.21667 10
      vertex 2.1838 1.9 10
    endloop
  endfacet
  facet normal -0 0 1
    outer loop
      vertex 0.685454 -2.21667 10
      vertex 29.2403 -6 10
      vertex 5.28357 -2.21667 10
    endloop
  endfacet
  facet normal -0 0 1
    outer loop
      vertex -0.685455 -2.21667 10
      vertex 29.2403 -6 10
      vertex 0.685454 -2.21667 10
    endloop
  endfacet
  facet normal -0 0 1
    outer loop
      vertex -3.78522 1.9 10
      vertex -0.685455 -2.21667 10
      vertex -2.1838 1.9 10
    endloop
  endfacet
  facet normal 0 0 1
    outer loop
      vertex -5.28357 -2.21667 10
      vertex -0.685455 -2.21667 10
      vertex -3.78522 1.9 10
    endloop
  endfacet
  facet normal 0 0 1
    outer loop
      vertex -29.1597 -6 10
      vertex -0.685455 -2.21667 10
      vertex -5.28357 -2.21667 10
    endloop
  endfacet
  facet normal 0 0 1
    outer loop
      vertex -29.1597 -6 10
      vertex -5.28357 -2.21667 10
      vertex -6.65448 -2.21667 10
    endloop
  endfacet
  facet normal -0 0 1
    outer loop
      vertex -9.75424 1.9 10
      vertex -6.65448 -2.21667 10
      vertex -8.15282 1.9 10
    endloop
  endfacet
  facet normal 0 0 1
    outer loop
      vertex -11.2526 -2.21667 10
      vertex -6.65448 -2.21667 10
      vertex -9.75424 1.9 10
    endloop
  endfacet
  facet normal 0 0 1
    outer loop
      vertex -29.1597 -6 10
      vertex -6.65448 -2.21667 10
      vertex -11.2526 -2.21667 10
    endloop
  endfacet
  facet normal 0 0 1
    outer loop
      vertex -29.1597 -6 10
      vertex -11.2526 -2.21667 10
      vertex -12.6235 -2.21667 10
    endloop
  endfacet
  facet normal -0 0 1
    outer loop
      vertex -15.7233 1.9 10
      vertex -12.6235 -2.21667 10
      vertex -14.1218 1.9 10
    endloop
  endfacet
  facet normal 0 0 1
    outer loop
      vertex -17.2216 -2.21667 10
      vertex -12.6235 -2.21667 10
      vertex -15.7233 1.9 10
    endloop
  endfacet
  facet normal 0 0 1
    outer loop
      vertex -29.1597 -6 10
      vertex -12.6235 -2.21667 10
      vertex -17.2216 -2.21667 10
    endloop
  endfacet
  facet normal 0 0 1
    outer loop
      vertex -29.1597 -6 10
      vertex -17.2216 -2.21667 10
      vertex -18.5925 -2.21667 10
    endloop
  endfacet
  facet normal -0 0 1
    outer loop
      vertex -21.6923 1.9 10
      vertex -18.5925 -2.21667 10
      vertex -20.0909 1.9 10
    endloop
  endfacet
  facet normal 0 0 1
    outer loop
      vertex -23.1906 -2.21667 10
      vertex -18.5925 -2.21667 10
      vertex -21.6923 1.9 10
    endloop
  endfacet
  facet normal 0 0 1
    outer loop
      vertex -29.1597 -6 10
      vertex -18.5925 -2.21667 10
      vertex -23.1906 -2.21667 10
    endloop
  endfacet
  facet normal 0 0 1
    outer loop
      vertex -29.1597 -6 10
      vertex -23.1906 -2.21667 10
      vertex -24.5615 -2.21667 10
    endloop
  endfacet
  facet normal -0 0 1
    outer loop
      vertex -27.6613 1.9 10
      vertex -24.5615 -2.21667 10
      vertex -26.0599 1.9 10
    endloop
  endfacet
  facet normal 0 0 1
    outer loop
      vertex -29.1597 -2.21667 10
      vertex -24.5615 -2.21667 10
      vertex -27.6613 1.9 10
    endloop
  endfacet
  facet normal 0 0 1
    outer loop
      vertex -29.1597 -6 10
      vertex -24.5615 -2.21667 10
      vertex -29.1597 -2.21667 10
    endloop
  endfacet
  facet normal 0 0 1
    outer loop
      vertex -0.685455 -2.21667 10
      vertex -29.1597 -6 10
      vertex 29.2403 -6 10
    endloop
  endfacet
  facet normal -0.939693 0.34202 0
    outer loop
      vertex -23.1906 -2.21667 0
      vertex -21.6923 1.9 10
      vertex -21.6923 1.9 0
    endloop
  endfacet
  facet normal -0.939693 0.34202 0
    outer loop
      vertex -21.6923 1.9 10
      vertex -23.1906 -2.21667 0
      vertex -23.1906 -2.21667 10
    endloop
  endfacet
  facet normal 0 1 -0
    outer loop
      vertex -20.0909 1.9 0
      vertex -21.6923 1.9 10
      vertex -20.0909 1.9 10
    endloop
  endfacet
  facet normal 0 1 0
    outer loop
      vertex -21.6923 1.9 10
      vertex -20.0909 1.9 0
      vertex -21.6923 1.9 0
    endloop
  endfacet
  facet normal 0.939693 0.34202 0
    outer loop
      vertex -18.5925 -2.21667 10
      vertex -20.0909 1.9 0
      vertex -20.0909 1.9 10
    endloop
  endfacet
  facet normal 0.939693 0.34202 0
    outer loop
      vertex -20.0909 1.9 0
      vertex -18.5925 -2.21667 10
      vertex -18.5925 -2.21667 0
    endloop
  endfacet
  facet normal 0 1 -0
    outer loop
      vertex -17.2216 -2.21667 0
      vertex -18.5925 -2.21667 10
      vertex -17.2216 -2.21667 10
    endloop
  endfacet
  facet normal 0 1 0
    outer loop
      vertex -18.5925 -2.21667 10
      vertex -17.2216 -2.21667 0
      vertex -18.5925 -2.21667 0
    endloop
  endfacet
  facet normal -0.939693 0.34202 0
    outer loop
      vertex -17.2216 -2.21667 0
      vertex -15.7233 1.9 10
      vertex -15.7233 1.9 0
    endloop
  endfacet
  facet normal -0.939693 0.34202 0
    outer loop
      vertex -15.7233 1.9 10
      vertex -17.2216 -2.21667 0
      vertex -17.2216 -2.21667 10
    endloop
  endfacet
  facet normal 0 1 -0
    outer loop
      vertex -14.1218 1.9 0
      vertex -15.7233 1.9 10
      vertex -14.1218 1.9 10
    endloop
  endfacet
  facet normal 0 1 0
    outer loop
      vertex -15.7233 1.9 10
      vertex -14.1218 1.9 0
      vertex -15.7233 1.9 0
    endloop
  endfacet
  facet normal 0.939693 0.34202 0
    outer loop
      vertex -12.6235 -2.21667 10
      vertex -14.1218 1.9 0
      vertex -14.1218 1.9 10
    endloop
  endfacet
  facet normal 0.939693 0.34202 0
    outer loop
      vertex -14.1218 1.9 0
      vertex -12.6235 -2.21667 10
      vertex -12.6235 -2.21667 0
    endloop
  endfacet
  facet normal 0 1 -0
    outer loop
      vertex -11.2526 -2.21667 0
      vertex -12.6235 -2.21667 10
      vertex -11.2526 -2.21667 10
    endloop
  endfacet
  facet normal 0 1 0
    outer loop
      vertex -12.6235 -2.21667 10
      vertex -11.2526 -2.21667 0
      vertex -12.6235 -2.21667 0
    endloop
  endfacet
  facet normal -0.939693 0.34202 0
    outer loop
      vertex -11.2526 -2.21667 0
      vertex -9.75424 1.9 10
      vertex -9.75424 1.9 0
    endloop
  endfacet
  facet normal -0.939693 0.34202 0
    outer loop
      vertex -9.75424 1.9 10
      vertex -11.2526 -2.21667 0
      vertex -11.2526 -2.21667 10
    endloop
  endfacet
  facet normal 0 1 -0
    outer loop
      vertex -8.15282 1.9 0
      vertex -9.75424 1.9 10
      vertex -8.15282 1.9 10
    endloop
  endfacet
  facet normal 0 1 0
    outer loop
      vertex -9.75424 1.9 10
      vertex -8.15282 1.9 0
      vertex -9.75424 1.9 0
    endloop
  endfacet
  facet normal 0.939693 0.34202 0
    outer loop
      vertex -6.65448 -2.21667 10
      vertex -8.15282 1.9 0
      vertex -8.15282 1.9 10
    endloop
  endfacet
  facet normal 0.939693 0.34202 0
    outer loop
      vertex -8.15282 1.9 0
      vertex -6.65448 -2.21667 10
      vertex -6.65448 -2.21667 0
    endloop
  endfacet
  facet normal 0 1 -0
    outer loop
      vertex -5.28357 -2.21667 0
      vertex -6.65448 -2.21667 10
      vertex -5.28357 -2.21667 10
    endloop
  endfacet
  facet normal 0 1 0
    outer loop
      vertex -6.65448 -2.21667 10
      vertex -5.28357 -2.21667 0
      vertex -6.65448 -2.21667 0
    endloop
  endfacet
  facet normal -0.939693 0.34202 0
    outer loop
      vertex -5.28357 -2.21667 0
      vertex -3.78522 1.9 10
      vertex -3.78522 1.9 0
    endloop
  endfacet
  facet normal -0.939693 0.34202 0
    outer loop
      vertex -3.78522 1.9 10
      vertex -5.28357 -2.21667 0
      vertex -5.28357 -2.21667 10
    endloop
  endfacet
  facet normal 0 1 -0
    outer loop
      vertex -2.1838 1.9 0
      vertex -3.78522 1.9 10
      vertex -2.1838 1.9 10
    endloop
  endfacet
  facet normal 0 1 0
    outer loop
      vertex -3.78522 1.9 10
      vertex -2.1838 1.9 0
      vertex -3.78522 1.9 0
    endloop
  endfacet
  facet normal 0.939693 0.34202 0
    outer loop
      vertex -0.685455 -2.21667 10
      vertex -2.1838 1.9 0
      vertex -2.1838 1.9 10
    endloop
  endfacet
  facet normal 0.939693 0.34202 0
    outer loop
      vertex -2.1838 1.9 0
      vertex -0.685455 -2.21667 10
      vertex -0.685455 -2.21667 0
    endloop
  endfacet
  facet normal 0 1 -0
    outer loop
      vertex 0.685454 -2.21667 0
      vertex -0.685455 -2.21667 10
      vertex 0.685454 -2.21667 10
    endloop
  endfacet
  facet normal 0 1 0
    outer loop
      vertex -0.685455 -2.21667 10
      vertex 0.685454 -2.21667 0
      vertex -0.685455 -2.21667 0
    endloop
  endfacet
  facet normal -0.939693 0.34202 0
    outer loop
      vertex 0.685454 -2.21667 0
      vertex 2.1838 1.9 10
      vertex 2.1838 1.9 0
    endloop
  endfacet
  facet normal -0.939693 0.34202 0
    outer loop
      vertex 2.1838 1.9 10
      vertex 0.685454 -2.21667 0
      vertex 0.685454 -2.21667 10
    endloop
  endfacet
  facet normal 0 1 -0
    outer loop
      vertex 3.78522 1.9 0
      vertex 2.1838 1.9 10
      vertex 3.78522 1.9 10
    endloop
  endfacet
  facet normal 0 1 0
    outer loop
      vertex 2.1838 1.9 10
      vertex 3.78522 1.9 0
      vertex 2.1838 1.9 0
    endloop
  endfacet
  facet normal 0.939693 0.34202 0
    outer loop
      vertex 5.28357 -2.21667 10
      vertex 3.78522 1.9 0
      vertex 3.78522 1.9 10
    endloop
  endfacet
  facet normal 0.939693 0.34202 0
    outer loop
      vertex 3.78522 1.9 0
      vertex 5.28357 -2.21667 10
      vertex 5.28357 -2.21667 0
    endloop
  endfacet
  facet normal 0 1 -0
    outer loop
      vertex 6.65447 -2.21667 0
      vertex 5.28357 -2.21667 10
      vertex 6.65447 -2.21667 10
    endloop
  endfacet
  facet normal 0 1 0
    outer loop
      vertex 5.28357 -2.21667 10
      vertex 6.65447 -2.21667 0
      vertex 5.28357 -2.21667 0
    endloop
  endfacet
  facet normal -0.939693 0.34202 0
    outer loop
      vertex 6.65447 -2.21667 0
      vertex 8.15282 1.9 10
      vertex 8.15282 1.9 0
    endloop
  endfacet
  facet normal -0.939693 0.34202 0
    outer loop
      vertex 8.15282 1.9 10
      vertex 6.65447 -2.21667 0
      vertex 6.65447 -2.21667 10
    endloop
  endfacet
  facet normal 0 1 -0
    outer loop
      vertex 9.75424 1.9 0
      vertex 8.15282 1.9 10
      vertex 9.75424 1.9 10
    endloop
  endfacet
  facet normal 0 1 0
    outer loop
      vertex 8.15282 1.9 10
      vertex 9.75424 1.9 0
      vertex 8.15282 1.9 0
    endloop
  endfacet
  facet normal 0.939693 0.34202 0
    outer loop
      vertex 11.2526 -2.21667 10
      vertex 9.75424 1.9 0
      vertex 9.75424 1.9 10
    endloop
  endfacet
  facet normal 0.939693 0.34202 0
    outer loop
      vertex 9.75424 1.9 0
      vertex 11.2526 -2.21667 10
      vertex 11.2526 -2.21667 0
    endloop
  endfacet
  facet normal 0 1 -0
    outer loop
      vertex 12.6235 -2.21667 0
      vertex 11.2526 -2.21667 10
      vertex 12.6235 -2.21667 10
    endloop
  endfacet
  facet normal 0 1 0
    outer loop
      vertex 11.2526 -2.21667 10
      vertex 12.6235 -2.21667 0
      vertex 11.2526 -2.21667 0
    endloop
  endfacet
  facet normal -0.939693 0.34202 0
    outer loop
      vertex 12.6235 -2.21667 0
      vertex 14.1218 1.9 10
      vertex 14.1218 1.9 0
    endloop
  endfacet
  facet normal -0.939693 0.34202 0
    outer loop
      vertex 14.1218 1.9 10
      vertex 12.6235 -2.21667 0
      vertex 12.6235 -2.21667 10
    endloop
  endfacet
  facet normal 0 1 -0
    outer loop
      vertex 15.7233 1.9 0
      vertex 14.1218 1.9 10
      vertex 15.7233 1.9 10
    endloop
  endfacet
  facet normal 0 1 0
    outer loop
      vertex 14.1218 1.9 10
      vertex 15.7233 1.9 0
      vertex 14.1218 1.9 0
    endloop
  endfacet
  facet normal 0.939693 0.34202 0
    outer loop
      vertex 17.2216 -2.21667 10
      vertex 15.7233 1.9 0
      vertex 15.7233 1.9 10
    endloop
  endfacet
  facet normal 0.939693 0.34202 0
    outer loop
      vertex 15.7233 1.9 0
      vertex 17.2216 -2.21667 10
      vertex 17.2216 -2.21667 0
    endloop
  endfacet
  facet normal 0 1 -0
    outer loop
      vertex 18.5925 -2.21667 0
      vertex 17.2216 -2.21667 10
      vertex 18.5925 -2.21667 10
    endloop
  endfacet
  facet normal 0 1 0
    outer loop
      vertex 17.2216 -2.21667 10
      vertex 18.5925 -2.21667 0
      vertex 17.2216 -2.21667 0
    endloop
  endfacet
  facet normal -0.939693 0.34202 0
    outer loop
      vertex 18.5925 -2.21667 0
      vertex 20.0909 1.9 10
      vertex 20.0909 1.9 0
    endloop
  endfacet
  facet normal -0.939693 0.34202 0
    outer loop
      vertex 20.0909 1.9 10
      vertex 18.5925 -2.21667 0
      vertex 18.5925 -2.21667 10
    endloop
  endfacet
  facet normal 0 1 -0
    outer loop
      vertex 21.6923 1.9 0
      vertex 20.0909 1.9 10
      vertex 21.6923 1.9 10
    endloop
  endfacet
  facet normal 0 1 0
    outer loop
      vertex 20.0909 1.9 10
      vertex 21.6923 1.9 0
      vertex 20.0909 1.9 0
    endloop
  endfacet
  facet normal 0.939693 0.34202 0
    outer loop
      vertex 23.1906 -2.21667 10
      vertex 21.6923 1.9 0
      vertex 21.6923 1.9 10
    endloop
  endfacet
  facet normal 0.939693 0.34202 0
    outer loop
      vertex 21.6923 1.9 0
      vertex 23.1906 -2.21667 10
      vertex 23.1906 -2.21667 0
    endloop
  endfacet
  facet normal 0 1 -0
    outer loop
      vertex 24.5615 -2.21667 0
      vertex 23.1906 -2.21667 10
      vertex 24.5615 -2.21667 10
    endloop
  endfacet
  facet normal 0 1 0
    outer loop
      vertex 23.1906 -2.21667 10
      vertex 24.5615 -2.21667 0
      vertex 23.1906 -2.21667 0
    endloop
  endfacet
  facet normal -0.939693 0.34202 0
    outer loop
      vertex 24.5615 -2.21667 0
      vertex 26.0599 1.9 10
      vertex 26.0599 1.9 0
    endloop
  endfacet
  facet normal -0.939693 0.34202 0
    outer loop
      vertex 26.0599 1.9 10
      vertex 24.5615 -2.21667 0
      vertex 24.5615 -2.21667 10
    endloop
  endfacet
  facet normal 0 1 -0
    outer loop
      vertex 27.6613 1.9 0
      vertex 26.0599 1.9 10
      vertex 27.6613 1.9 10
    endloop
  endfacet
  facet normal 0 1 0
    outer loop
      vertex 26.0599 1.9 10
      vertex 27.6613 1.9 0
      vertex 26.0599 1.9 0
    endloop
  endfacet
  facet normal 0.939693 0.34202 0
    outer loop
      vertex 29.1597 -2.21667 10
      vertex 27.6613 1.9 0
      vertex 27.6613 1.9 10
    endloop
  endfacet
  facet normal 0.939693 0.34202 0
    outer loop
      vertex 27.6613 1.9 0
      vertex 29.1597 -2.21667 10
      vertex 29.1597 -2.21667 0
    endloop
  endfacet
  facet normal 0 1 -0
    outer loop
      vertex 29.2403 -2.21667 0
      vertex 29.1597 -2.21667 10
      vertex 29.2403 -2.21667 10
    endloop
  endfacet
  facet normal 0 1 0
    outer loop
      vertex 29.1597 -2.21667 10
      vertex 29.2403 -2.21667 0
      vertex 29.1597 -2.21667 0
    endloop
  endfacet
  facet normal 1 -0 0
    outer loop
      vertex 29.2403 -6 10
      vertex 29.2403 -2.21667 0
      vertex 29.2403 -2.21667 10
    endloop
  endfacet
  facet normal 1 0 0
    outer loop
      vertex 29.2403 -2.21667 0
      vertex 29.2403 -6 10
      vertex 29.2403 -6 0
    endloop
  endfacet
endsolid OpenSCAD_Model
