solid OpenSCAD_Model
  facet normal 0.866025 0.5 0
    outer loop
      vertex 6.8 0 20
      vertex 3.4 5.88897 0
      vertex 3.4 5.88897 20
    endloop
  endfacet
  facet normal 0.866025 0.5 0
    outer loop
      vertex 3.4 5.88897 0
      vertex 6.8 0 20
      vertex 6.8 0 0
    endloop
  endfacet
  facet normal -0.866025 0.5 0
    outer loop
      vertex -6.8 0 0
      vertex -3.4 5.88897 20
      vertex -3.4 5.88897 0
    endloop
  endfacet
  facet normal -0.866025 0.5 0
    outer loop
      vertex -3.4 5.88897 20
      vertex -6.8 0 0
      vertex -6.8 0 20
    endloop
  endfacet
  facet normal 0 1 -0
    outer loop
      vertex 3.4 5.88897 0
      vertex -3.4 5.88897 20
      vertex 3.4 5.88897 20
    endloop
  endfacet
  facet normal 0 1 0
    outer loop
      vertex -3.4 5.88897 20
      vertex 3.4 5.88897 0
      vertex -3.4 5.88897 0
    endloop
  endfacet
  facet normal 0 0 -1
    outer loop
      vertex 6.8 0 20
      vertex 8 0 20
      vertex 7.98421 -0.502324 20
    endloop
  endfacet
  facet normal 0 0 -1
    outer loop
      vertex 6.8 0 20
      vertex 7.98421 -0.502324 20
      vertex 7.93692 -1.00267 20
    endloop
  endfacet
  facet normal 0 0 -1
    outer loop
      vertex 8 0 20
      vertex 6.8 0 20
      vertex 7.98421 0.502324 20
    endloop
  endfacet
  facet normal 0 0 -1
    outer loop
      vertex 6.8 0 20
      vertex 7.93692 -1.00267 20
      vertex 7.8583 -1.49905 20
    endloop
  endfacet
  facet normal -0 0 -1
    outer loop
      vertex 7.98421 0.502324 20
      vertex 6.8 0 20
      vertex 7.93692 1.00267 20
    endloop
  endfacet
  facet normal 0 0 -1
    outer loop
      vertex 6.8 0 20
      vertex 7.8583 -1.49905 20
      vertex 7.74866 -1.98952 20
    endloop
  endfacet
  facet normal -0 0 -1
    outer loop
      vertex 7.93692 1.00267 20
      vertex 6.8 0 20
      vertex 7.8583 1.49905 20
    endloop
  endfacet
  facet normal 0 0 -1
    outer loop
      vertex 6.8 0 20
      vertex 7.74866 -1.98952 20
      vertex 7.60845 -2.47214 20
    endloop
  endfacet
  facet normal -0 0 -1
    outer loop
      vertex 7.8583 1.49905 20
      vertex 6.8 0 20
      vertex 7.74866 1.98952 20
    endloop
  endfacet
  facet normal 0 0 -1
    outer loop
      vertex 6.8 0 20
      vertex 7.60845 -2.47214 20
      vertex 7.43821 -2.945 20
    endloop
  endfacet
  facet normal -0 0 -1
    outer loop
      vertex 7.74866 1.98952 20
      vertex 6.8 0 20
      vertex 7.60845 2.47214 20
    endloop
  endfacet
  facet normal 0 0 -1
    outer loop
      vertex 6.8 0 20
      vertex 7.43821 -2.945 20
      vertex 7.23862 -3.40623 20
    endloop
  endfacet
  facet normal -0 0 -1
    outer loop
      vertex 7.60845 2.47214 20
      vertex 6.8 0 20
      vertex 7.43821 2.945 20
    endloop
  endfacet
  facet normal 0 0 -1
    outer loop
      vertex 6.8 0 20
      vertex 7.23862 -3.40623 20
      vertex 7.01045 -3.85403 20
    endloop
  endfacet
  facet normal -0 0 -1
    outer loop
      vertex 7.43821 2.945 20
      vertex 6.8 0 20
      vertex 7.23862 3.40623 20
    endloop
  endfacet
  facet normal -0 0 -1
    outer loop
      vertex 7.23862 3.40623 20
      vertex 6.8 0 20
      vertex 7.01045 3.85403 20
    endloop
  endfacet
  facet normal 0 0 -1
    outer loop
      vertex 3.4 -5.88897 20
      vertex 7.01045 -3.85403 20
      vertex 6.75462 -4.28661 20
    endloop
  endfacet
  facet normal 0 0 -1
    outer loop
      vertex 3.4 -5.88897 20
      vertex 6.75462 -4.28661 20
      vertex 6.47214 -4.70228 20
    endloop
  endfacet
  facet normal 0 0 -1
    outer loop
      vertex 3.4 -5.88897 20
      vertex 6.47214 -4.70228 20
      vertex 6.16411 -5.09939 20
    endloop
  endfacet
  facet normal 0 0 -1
    outer loop
      vertex 3.4 -5.88897 20
      vertex 6.16411 -5.09939 20
      vertex 5.83175 -5.47638 20
    endloop
  endfacet
  facet normal 0 0 -1
    outer loop
      vertex 3.4 -5.88897 20
      vertex 5.83175 -5.47638 20
      vertex 5.47638 -5.83175 20
    endloop
  endfacet
  facet normal 0 0 -1
    outer loop
      vertex 3.4 -5.88897 20
      vertex 5.47638 -5.83175 20
      vertex 5.09939 -6.16411 20
    endloop
  endfacet
  facet normal 0 0 -1
    outer loop
      vertex 3.4 -5.88897 20
      vertex 5.09939 -6.16411 20
      vertex 4.70228 -6.47214 20
    endloop
  endfacet
  facet normal 0 0 -1
    outer loop
      vertex 3.4 -5.88897 20
      vertex 4.70228 -6.47214 20
      vertex 4.28661 -6.75462 20
    endloop
  endfacet
  facet normal 0 0 -1
    outer loop
      vertex 3.4 -5.88897 20
      vertex 4.28661 -6.75462 20
      vertex 3.85403 -7.01045 20
    endloop
  endfacet
  facet normal 0 0 -1
    outer loop
      vertex 3.4 -5.88897 20
      vertex 3.85403 -7.01045 20
      vertex 3.40623 -7.23862 20
    endloop
  endfacet
  facet normal -0 0 -1
    outer loop
      vertex 7.01045 -3.85403 20
      vertex 3.4 -5.88897 20
      vertex 6.8 0 20
    endloop
  endfacet
  facet normal 0 0 -1
    outer loop
      vertex 2.945 -7.43821 20
      vertex 3.4 -5.88897 20
      vertex 3.40623 -7.23862 20
    endloop
  endfacet
  facet normal 0 0 -1
    outer loop
      vertex 2.47214 -7.60845 20
      vertex 3.4 -5.88897 20
      vertex 2.945 -7.43821 20
    endloop
  endfacet
  facet normal 0 0 -1
    outer loop
      vertex 1.98952 -7.74866 20
      vertex 3.4 -5.88897 20
      vertex 2.47214 -7.60845 20
    endloop
  endfacet
  facet normal 0 0 -1
    outer loop
      vertex 1.49905 -7.8583 20
      vertex 3.4 -5.88897 20
      vertex 1.98952 -7.74866 20
    endloop
  endfacet
  facet normal 0 0 -1
    outer loop
      vertex 1.00267 -7.93692 20
      vertex 3.4 -5.88897 20
      vertex 1.49905 -7.8583 20
    endloop
  endfacet
  facet normal 0 0 -1
    outer loop
      vertex 0.502324 -7.98421 20
      vertex 3.4 -5.88897 20
      vertex 1.00267 -7.93692 20
    endloop
  endfacet
  facet normal 0 0 -1
    outer loop
      vertex 0 -8 20
      vertex 3.4 -5.88897 20
      vertex 0.502324 -7.98421 20
    endloop
  endfacet
  facet normal 0 0 -1
    outer loop
      vertex -3.4 -5.88897 20
      vertex 0 -8 20
      vertex -0.502324 -7.98421 20
    endloop
  endfacet
  facet normal 0 0 -1
    outer loop
      vertex -3.4 -5.88897 20
      vertex -0.502324 -7.98421 20
      vertex -1.00267 -7.93692 20
    endloop
  endfacet
  facet normal 0 0 -1
    outer loop
      vertex -3.4 -5.88897 20
      vertex -1.00267 -7.93692 20
      vertex -1.49905 -7.8583 20
    endloop
  endfacet
  facet normal 0 0 -1
    outer loop
      vertex -3.4 -5.88897 20
      vertex -1.49905 -7.8583 20
      vertex -1.98952 -7.74866 20
    endloop
  endfacet
  facet normal 0 0 -1
    outer loop
      vertex -3.4 -5.88897 20
      vertex -1.98952 -7.74866 20
      vertex -2.47214 -7.60845 20
    endloop
  endfacet
  facet normal 0 0 -1
    outer loop
      vertex -3.4 -5.88897 20
      vertex -2.47214 -7.60845 20
      vertex -2.945 -7.43821 20
    endloop
  endfacet
  facet normal 0 0 -1
    outer loop
      vertex 0 -8 20
      vertex -3.4 -5.88897 20
      vertex 3.4 -5.88897 20
    endloop
  endfacet
  facet normal 0 0 -1
    outer loop
      vertex -3.40623 -7.23862 20
      vertex -3.4 -5.88897 20
      vertex -2.945 -7.43821 20
    endloop
  endfacet
  facet normal 0 0 -1
    outer loop
      vertex -3.85403 -7.01045 20
      vertex -3.4 -5.88897 20
      vertex -3.40623 -7.23862 20
    endloop
  endfacet
  facet normal 0 0 -1
    outer loop
      vertex -4.28661 -6.75462 20
      vertex -3.4 -5.88897 20
      vertex -3.85403 -7.01045 20
    endloop
  endfacet
  facet normal 0 0 -1
    outer loop
      vertex -4.70228 -6.47214 20
      vertex -3.4 -5.88897 20
      vertex -4.28661 -6.75462 20
    endloop
  endfacet
  facet normal 0 0 -1
    outer loop
      vertex -5.09939 -6.16411 20
      vertex -3.4 -5.88897 20
      vertex -4.70228 -6.47214 20
    endloop
  endfacet
  facet normal 0 0 -1
    outer loop
      vertex -5.47638 -5.83175 20
      vertex -3.4 -5.88897 20
      vertex -5.09939 -6.16411 20
    endloop
  endfacet
  facet normal 0 0 -1
    outer loop
      vertex -5.83175 -5.47638 20
      vertex -3.4 -5.88897 20
      vertex -5.47638 -5.83175 20
    endloop
  endfacet
  facet normal 0 0 -1
    outer loop
      vertex -6.16411 -5.09939 20
      vertex -3.4 -5.88897 20
      vertex -5.83175 -5.47638 20
    endloop
  endfacet
  facet normal 0 0 -1
    outer loop
      vertex -6.47214 -4.70228 20
      vertex -3.4 -5.88897 20
      vertex -6.16411 -5.09939 20
    endloop
  endfacet
  facet normal 0 0 -1
    outer loop
      vertex -6.75462 -4.28661 20
      vertex -3.4 -5.88897 20
      vertex -6.47214 -4.70228 20
    endloop
  endfacet
  facet normal 0 0 -1
    outer loop
      vertex -7.01045 -3.85403 20
      vertex -3.4 -5.88897 20
      vertex -6.75462 -4.28661 20
    endloop
  endfacet
  facet normal 0 0 -1
    outer loop
      vertex -3.4 -5.88897 20
      vertex -7.01045 -3.85403 20
      vertex -6.8 0 20
    endloop
  endfacet
  facet normal 0 0 -1
    outer loop
      vertex 3.4 5.88897 20
      vertex 7.01045 3.85403 20
      vertex 6.8 0 20
    endloop
  endfacet
  facet normal 0 0 -1
    outer loop
      vertex 7.01045 3.85403 20
      vertex 3.4 5.88897 20
      vertex 6.75462 4.28661 20
    endloop
  endfacet
  facet normal 0 0 -1
    outer loop
      vertex 6.75462 4.28661 20
      vertex 3.4 5.88897 20
      vertex 6.47214 4.70228 20
    endloop
  endfacet
  facet normal 0 0 -1
    outer loop
      vertex 6.47214 4.70228 20
      vertex 3.4 5.88897 20
      vertex 6.16411 5.09939 20
    endloop
  endfacet
  facet normal 0 0 -1
    outer loop
      vertex 6.16411 5.09939 20
      vertex 3.4 5.88897 20
      vertex 5.83175 5.47638 20
    endloop
  endfacet
  facet normal 0 0 -1
    outer loop
      vertex 5.83175 5.47638 20
      vertex 3.4 5.88897 20
      vertex 5.47638 5.83175 20
    endloop
  endfacet
  facet normal 0 0 -1
    outer loop
      vertex 5.47638 5.83175 20
      vertex 3.4 5.88897 20
      vertex 5.09939 6.16411 20
    endloop
  endfacet
  facet normal -0 0 -1
    outer loop
      vertex 5.09939 6.16411 20
      vertex 3.4 5.88897 20
      vertex 4.70228 6.47214 20
    endloop
  endfacet
  facet normal -0 0 -1
    outer loop
      vertex 4.70228 6.47214 20
      vertex 3.4 5.88897 20
      vertex 4.28661 6.75462 20
    endloop
  endfacet
  facet normal -0 0 -1
    outer loop
      vertex 4.28661 6.75462 20
      vertex 3.4 5.88897 20
      vertex 3.85403 7.01045 20
    endloop
  endfacet
  facet normal -0 0 -1
    outer loop
      vertex 3.85403 7.01045 20
      vertex 3.4 5.88897 20
      vertex 3.40623 7.23862 20
    endloop
  endfacet
  facet normal 0 0 -1
    outer loop
      vertex 3.4 5.88897 20
      vertex 2.945 7.43821 20
      vertex 3.40623 7.23862 20
    endloop
  endfacet
  facet normal 0 0 -1
    outer loop
      vertex 3.4 5.88897 20
      vertex 2.47214 7.60845 20
      vertex 2.945 7.43821 20
    endloop
  endfacet
  facet normal 0 0 -1
    outer loop
      vertex 3.4 5.88897 20
      vertex 1.98952 7.74866 20
      vertex 2.47214 7.60845 20
    endloop
  endfacet
  facet normal 0 0 -1
    outer loop
      vertex 3.4 5.88897 20
      vertex 1.49905 7.8583 20
      vertex 1.98952 7.74866 20
    endloop
  endfacet
  facet normal 0 0 -1
    outer loop
      vertex 3.4 5.88897 20
      vertex 1.00267 7.93692 20
      vertex 1.49905 7.8583 20
    endloop
  endfacet
  facet normal 0 0 -1
    outer loop
      vertex 3.4 5.88897 20
      vertex 0.502324 7.98421 20
      vertex 1.00267 7.93692 20
    endloop
  endfacet
  facet normal 0 0 -1
    outer loop
      vertex 3.4 5.88897 20
      vertex 0 8 20
      vertex 0.502324 7.98421 20
    endloop
  endfacet
  facet normal 0 0 -1
    outer loop
      vertex -3.4 5.88897 20
      vertex 0 8 20
      vertex 3.4 5.88897 20
    endloop
  endfacet
  facet normal 0 0 -1
    outer loop
      vertex 0 8 20
      vertex -3.4 5.88897 20
      vertex -0.502324 7.98421 20
    endloop
  endfacet
  facet normal 0 0 -1
    outer loop
      vertex -0.502324 7.98421 20
      vertex -3.4 5.88897 20
      vertex -1.00267 7.93692 20
    endloop
  endfacet
  facet normal 0 0 -1
    outer loop
      vertex -1.00267 7.93692 20
      vertex -3.4 5.88897 20
      vertex -1.49905 7.8583 20
    endloop
  endfacet
  facet normal 0 0 -1
    outer loop
      vertex -1.49905 7.8583 20
      vertex -3.4 5.88897 20
      vertex -1.98952 7.74866 20
    endloop
  endfacet
  facet normal 0 0 -1
    outer loop
      vertex -1.98952 7.74866 20
      vertex -3.4 5.88897 20
      vertex -2.47214 7.60845 20
    endloop
  endfacet
  facet normal 0 0 -1
    outer loop
      vertex -2.47214 7.60845 20
      vertex -3.4 5.88897 20
      vertex -2.945 7.43821 20
    endloop
  endfacet
  facet normal 0 0 -1
    outer loop
      vertex -3.4 5.88897 20
      vertex -3.40623 7.23862 20
      vertex -2.945 7.43821 20
    endloop
  endfacet
  facet normal 0 0 -1
    outer loop
      vertex -3.4 5.88897 20
      vertex -3.85403 7.01045 20
      vertex -3.40623 7.23862 20
    endloop
  endfacet
  facet normal 0 0 -1
    outer loop
      vertex -3.4 5.88897 20
      vertex -4.28661 6.75462 20
      vertex -3.85403 7.01045 20
    endloop
  endfacet
  facet normal 0 0 -1
    outer loop
      vertex -3.4 5.88897 20
      vertex -4.70228 6.47214 20
      vertex -4.28661 6.75462 20
    endloop
  endfacet
  facet normal 0 0 -1
    outer loop
      vertex -3.4 5.88897 20
      vertex -5.09939 6.16411 20
      vertex -4.70228 6.47214 20
    endloop
  endfacet
  facet normal -0 0 -1
    outer loop
      vertex -3.4 5.88897 20
      vertex -5.47638 5.83175 20
      vertex -5.09939 6.16411 20
    endloop
  endfacet
  facet normal 0 0 -1
    outer loop
      vertex -3.4 5.88897 20
      vertex -5.83175 5.47638 20
      vertex -5.47638 5.83175 20
    endloop
  endfacet
  facet normal 0 0 -1
    outer loop
      vertex -3.4 5.88897 20
      vertex -6.16411 5.09939 20
      vertex -5.83175 5.47638 20
    endloop
  endfacet
  facet normal 0 0 -1
    outer loop
      vertex -3.4 5.88897 20
      vertex -6.47214 4.70228 20
      vertex -6.16411 5.09939 20
    endloop
  endfacet
  facet normal 0 0 -1
    outer loop
      vertex -3.4 5.88897 20
      vertex -6.75462 4.28661 20
      vertex -6.47214 4.70228 20
    endloop
  endfacet
  facet normal 0 0 -1
    outer loop
      vertex -7.01045 3.85403 20
      vertex -3.4 5.88897 20
      vertex -6.8 0 20
    endloop
  endfacet
  facet normal 0 0 -1
    outer loop
      vertex -7.23862 -3.40623 20
      vertex -6.8 0 20
      vertex -7.01045 -3.85403 20
    endloop
  endfacet
  facet normal 0 0 -1
    outer loop
      vertex -3.4 5.88897 20
      vertex -7.01045 3.85403 20
      vertex -6.75462 4.28661 20
    endloop
  endfacet
  facet normal 0 0 -1
    outer loop
      vertex -7.43821 -2.945 20
      vertex -6.8 0 20
      vertex -7.23862 -3.40623 20
    endloop
  endfacet
  facet normal 0 0 -1
    outer loop
      vertex -6.8 0 20
      vertex -7.23862 3.40623 20
      vertex -7.01045 3.85403 20
    endloop
  endfacet
  facet normal 0 0 -1
    outer loop
      vertex -7.60845 -2.47214 20
      vertex -6.8 0 20
      vertex -7.43821 -2.945 20
    endloop
  endfacet
  facet normal 0 0 -1
    outer loop
      vertex -6.8 0 20
      vertex -7.43821 2.945 20
      vertex -7.23862 3.40623 20
    endloop
  endfacet
  facet normal 0 0 -1
    outer loop
      vertex -7.74866 -1.98952 20
      vertex -6.8 0 20
      vertex -7.60845 -2.47214 20
    endloop
  endfacet
  facet normal 0 0 -1
    outer loop
      vertex -6.8 0 20
      vertex -7.60845 2.47214 20
      vertex -7.43821 2.945 20
    endloop
  endfacet
  facet normal 0 0 -1
    outer loop
      vertex -7.8583 -1.49905 20
      vertex -6.8 0 20
      vertex -7.74866 -1.98952 20
    endloop
  endfacet
  facet normal 0 0 -1
    outer loop
      vertex -6.8 0 20
      vertex -7.74866 1.98952 20
      vertex -7.60845 2.47214 20
    endloop
  endfacet
  facet normal 0 0 -1
    outer loop
      vertex -7.93692 -1.00267 20
      vertex -6.8 0 20
      vertex -7.8583 -1.49905 20
    endloop
  endfacet
  facet normal 0 0 -1
    outer loop
      vertex -6.8 0 20
      vertex -7.8583 1.49905 20
      vertex -7.74866 1.98952 20
    endloop
  endfacet
  facet normal 0 0 -1
    outer loop
      vertex -7.98421 -0.502324 20
      vertex -6.8 0 20
      vertex -7.93692 -1.00267 20
    endloop
  endfacet
  facet normal 0 0 -1
    outer loop
      vertex -6.8 0 20
      vertex -7.93692 1.00267 20
      vertex -7.8583 1.49905 20
    endloop
  endfacet
  facet normal 0 0 -1
    outer loop
      vertex -8 0 20
      vertex -6.8 0 20
      vertex -7.98421 -0.502324 20
    endloop
  endfacet
  facet normal 0 0 -1
    outer loop
      vertex -6.8 0 20
      vertex -7.98421 0.502324 20
      vertex -7.93692 1.00267 20
    endloop
  endfacet
  facet normal 0 0 -1
    outer loop
      vertex -6.8 0 20
      vertex -8 0 20
      vertex -7.98421 0.502324 20
    endloop
  endfacet
  facet normal 0.866025 -0.5 0
    outer loop
      vertex 3.4 -5.88897 20
      vertex 6.8 0 0
      vertex 6.8 0 20
    endloop
  endfacet
  facet normal 0.866025 -0.5 0
    outer loop
      vertex 6.8 0 0
      vertex 3.4 -5.88897 20
      vertex 3.4 -5.88897 0
    endloop
  endfacet
  facet normal 0 0 -1
    outer loop
      vertex 1.91238 -1.27781 0
      vertex 6.8 0 0
      vertex 3.4 -5.88897 0
    endloop
  endfacet
  facet normal 0 0 -1
    outer loop
      vertex 2.25581 0.448708 0
      vertex 6.8 0 0
      vertex 2.3 0 0
    endloop
  endfacet
  facet normal -0 0 -1
    outer loop
      vertex 6.8 0 0
      vertex 2.25581 -0.448708 0
      vertex 2.3 0 0
    endloop
  endfacet
  facet normal 0 0 -1
    outer loop
      vertex 6.8 0 0
      vertex 2.12492 -0.880172 0
      vertex 2.25581 -0.448708 0
    endloop
  endfacet
  facet normal 0 0 -1
    outer loop
      vertex 6.8 0 0
      vertex 1.91238 -1.27781 0
      vertex 2.12492 -0.880172 0
    endloop
  endfacet
  facet normal 0 0 -1
    outer loop
      vertex 3.4 -5.88897 0
      vertex 1.62634 -1.62634 0
      vertex 1.91238 -1.27781 0
    endloop
  endfacet
  facet normal 0 0 -1
    outer loop
      vertex 3.4 -5.88897 0
      vertex 1.27781 -1.91238 0
      vertex 1.62634 -1.62634 0
    endloop
  endfacet
  facet normal 0 0 -1
    outer loop
      vertex 3.4 -5.88897 0
      vertex 0.880172 -2.12492 0
      vertex 1.27781 -1.91238 0
    endloop
  endfacet
  facet normal 0 0 -1
    outer loop
      vertex 3.4 -5.88897 0
      vertex 0.448708 -2.25581 0
      vertex 0.880172 -2.12492 0
    endloop
  endfacet
  facet normal 0 0 -1
    outer loop
      vertex 3.4 -5.88897 0
      vertex 0 -2.3 0
      vertex 0.448708 -2.25581 0
    endloop
  endfacet
  facet normal 0 0 -1
    outer loop
      vertex -3.4 -5.88897 0
      vertex 0 -2.3 0
      vertex 3.4 -5.88897 0
    endloop
  endfacet
  facet normal -0 0 -1
    outer loop
      vertex 0 -2.3 0
      vertex -3.4 -5.88897 0
      vertex -0.448708 -2.25581 0
    endloop
  endfacet
  facet normal -0 0 -1
    outer loop
      vertex -0.448708 -2.25581 0
      vertex -3.4 -5.88897 0
      vertex -0.880172 -2.12492 0
    endloop
  endfacet
  facet normal -0 0 -1
    outer loop
      vertex -0.880172 -2.12492 0
      vertex -3.4 -5.88897 0
      vertex -1.27781 -1.91238 0
    endloop
  endfacet
  facet normal 0 0 -1
    outer loop
      vertex -2.12492 -0.880172 0
      vertex -6.8 0 0
      vertex -2.25581 -0.448708 0
    endloop
  endfacet
  facet normal 0 0 -1
    outer loop
      vertex -1.91238 -1.27781 0
      vertex -6.8 0 0
      vertex -2.12492 -0.880172 0
    endloop
  endfacet
  facet normal 0 0 -1
    outer loop
      vertex -6.8 0 0
      vertex -1.91238 -1.27781 0
      vertex -3.4 -5.88897 0
    endloop
  endfacet
  facet normal -0 0 -1
    outer loop
      vertex -1.62634 -1.62634 0
      vertex -3.4 -5.88897 0
      vertex -1.91238 -1.27781 0
    endloop
  endfacet
  facet normal -0 0 -1
    outer loop
      vertex -1.27781 -1.91238 0
      vertex -3.4 -5.88897 0
      vertex -1.62634 -1.62634 0
    endloop
  endfacet
  facet normal 0 0 -1
    outer loop
      vertex 2.12492 0.880172 0
      vertex 6.8 0 0
      vertex 2.25581 0.448708 0
    endloop
  endfacet
  facet normal 0 0 -1
    outer loop
      vertex 1.91238 1.27781 0
      vertex 6.8 0 0
      vertex 2.12492 0.880172 0
    endloop
  endfacet
  facet normal 0 0 -1
    outer loop
      vertex 6.8 0 0
      vertex 1.91238 1.27781 0
      vertex 3.4 5.88897 0
    endloop
  endfacet
  facet normal 0 0 -1
    outer loop
      vertex 1.62634 1.62634 0
      vertex 3.4 5.88897 0
      vertex 1.91238 1.27781 0
    endloop
  endfacet
  facet normal 0 0 -1
    outer loop
      vertex 1.27781 1.91238 0
      vertex 3.4 5.88897 0
      vertex 1.62634 1.62634 0
    endloop
  endfacet
  facet normal 0 0 -1
    outer loop
      vertex 0.880172 2.12492 0
      vertex 3.4 5.88897 0
      vertex 1.27781 1.91238 0
    endloop
  endfacet
  facet normal 0 0 -1
    outer loop
      vertex 0.448708 2.25581 0
      vertex 3.4 5.88897 0
      vertex 0.880172 2.12492 0
    endloop
  endfacet
  facet normal 0 0 -1
    outer loop
      vertex 0 2.3 0
      vertex 3.4 5.88897 0
      vertex 0.448708 2.25581 0
    endloop
  endfacet
  facet normal 0 0 -1
    outer loop
      vertex -3.4 5.88897 0
      vertex 0 2.3 0
      vertex -0.448708 2.25581 0
    endloop
  endfacet
  facet normal 0 0 -1
    outer loop
      vertex -3.4 5.88897 0
      vertex -0.448708 2.25581 0
      vertex -0.880172 2.12492 0
    endloop
  endfacet
  facet normal 0 0 -1
    outer loop
      vertex -3.4 5.88897 0
      vertex -0.880172 2.12492 0
      vertex -1.27781 1.91238 0
    endloop
  endfacet
  facet normal 0 0 -1
    outer loop
      vertex -3.4 5.88897 0
      vertex -1.27781 1.91238 0
      vertex -1.62634 1.62634 0
    endloop
  endfacet
  facet normal 0 0 -1
    outer loop
      vertex -2.25581 -0.448708 0
      vertex -6.8 0 0
      vertex -2.3 0 0
    endloop
  endfacet
  facet normal 0 0 -1
    outer loop
      vertex 0 2.3 0
      vertex -3.4 5.88897 0
      vertex 3.4 5.88897 0
    endloop
  endfacet
  facet normal 0 0 -1
    outer loop
      vertex -1.91238 1.27781 0
      vertex -3.4 5.88897 0
      vertex -1.62634 1.62634 0
    endloop
  endfacet
  facet normal 0 0 -1
    outer loop
      vertex -6.8 0 0
      vertex -1.91238 1.27781 0
      vertex -2.12492 0.880172 0
    endloop
  endfacet
  facet normal 0 0 -1
    outer loop
      vertex -6.8 0 0
      vertex -2.12492 0.880172 0
      vertex -2.25581 0.448708 0
    endloop
  endfacet
  facet normal 0 0 -1
    outer loop
      vertex -2.3 0 0
      vertex -6.8 0 0
      vertex -2.25581 0.448708 0
    endloop
  endfacet
  facet normal -0 0 -1
    outer loop
      vertex -1.91238 1.27781 0
      vertex -6.8 0 0
      vertex -3.4 5.88897 0
    endloop
  endfacet
  facet normal 0 -1 0
    outer loop
      vertex -3.4 -5.88897 0
      vertex 3.4 -5.88897 20
      vertex -3.4 -5.88897 20
    endloop
  endfacet
  facet normal 0 -1 -0
    outer loop
      vertex 3.4 -5.88897 20
      vertex -3.4 -5.88897 0
      vertex 3.4 -5.88897 0
    endloop
  endfacet
  facet normal -0.866025 -0.5 0
    outer loop
      vertex -3.4 -5.88897 0
      vertex -6.8 0 20
      vertex -6.8 0 0
    endloop
  endfacet
  facet normal -0.866025 -0.5 0
    outer loop
      vertex -6.8 0 20
      vertex -3.4 -5.88897 0
      vertex -3.4 -5.88897 20
    endloop
  endfacet
  facet normal 0.999507 0.0314127 0
    outer loop
      vertex 8 0 23
      vertex 7.98421 0.502324 20
      vertex 7.98421 0.502324 23
    endloop
  endfacet
  facet normal 0.999507 0.0314127 0
    outer loop
      vertex 7.98421 0.502324 20
      vertex 8 0 23
      vertex 8 0 20
    endloop
  endfacet
  facet normal 0.707107 0.707107 0
    outer loop
      vertex 5.83175 5.47638 23
      vertex 5.47638 5.83175 20
      vertex 5.47638 5.83175 23
    endloop
  endfacet
  facet normal 0.707107 0.707107 0
    outer loop
      vertex 5.47638 5.83175 20
      vertex 5.83175 5.47638 23
      vertex 5.83175 5.47638 20
    endloop
  endfacet
  facet normal -0.338738 0.940881 0
    outer loop
      vertex -2.47214 7.60845 20
      vertex -2.945 7.43821 23
      vertex -2.47214 7.60845 23
    endloop
  endfacet
  facet normal -0.338738 0.940881 0
    outer loop
      vertex -2.945 7.43821 23
      vertex -2.47214 7.60845 20
      vertex -2.945 7.43821 20
    endloop
  endfacet
  facet normal -0.827082 -0.562082 0
    outer loop
      vertex -6.47214 -4.70228 20
      vertex -6.75462 -4.28661 23
      vertex -6.75462 -4.28661 20
    endloop
  endfacet
  facet normal -0.827082 -0.562082 0
    outer loop
      vertex -6.75462 -4.28661 23
      vertex -6.47214 -4.70228 20
      vertex -6.47214 -4.70228 23
    endloop
  endfacet
  facet normal 0.960294 0.278991 0
    outer loop
      vertex 7.74866 1.98952 23
      vertex 7.60845 2.47214 20
      vertex 7.60845 2.47214 23
    endloop
  endfacet
  facet normal 0.960294 0.278991 0
    outer loop
      vertex 7.60845 2.47214 20
      vertex 7.74866 1.98952 23
      vertex 7.74866 1.98952 20
    endloop
  endfacet
  facet normal 0.0941071 0.995562 -0
    outer loop
      vertex 1.00267 7.93692 20
      vertex 0.502324 7.98421 23
      vertex 1.00267 7.93692 23
    endloop
  endfacet
  facet normal 0.0941071 0.995562 0
    outer loop
      vertex 0.502324 7.98421 23
      vertex 1.00267 7.93692 20
      vertex 0.502324 7.98421 20
    endloop
  endfacet
  facet normal 0.45399 0.891007 -0
    outer loop
      vertex 3.85403 7.01045 20
      vertex 3.40623 7.23862 23
      vertex 3.85403 7.01045 23
    endloop
  endfacet
  facet normal 0.45399 0.891007 0
    outer loop
      vertex 3.40623 7.23862 23
      vertex 3.85403 7.01045 20
      vertex 3.40623 7.23862 20
    endloop
  endfacet
  facet normal -0.827082 0.562082 0
    outer loop
      vertex -6.75462 4.28661 20
      vertex -6.47214 4.70228 23
      vertex -6.47214 4.70228 20
    endloop
  endfacet
  facet normal -0.827082 0.562082 0
    outer loop
      vertex -6.47214 4.70228 23
      vertex -6.75462 4.28661 20
      vertex -6.75462 4.28661 23
    endloop
  endfacet
  facet normal -0.995562 0.0941071 0
    outer loop
      vertex -7.98421 0.502324 20
      vertex -7.93692 1.00267 23
      vertex -7.93692 1.00267 20
    endloop
  endfacet
  facet normal -0.995562 0.0941071 0
    outer loop
      vertex -7.93692 1.00267 23
      vertex -7.98421 0.502324 20
      vertex -7.98421 0.502324 23
    endloop
  endfacet
  facet normal -0.612908 0.790154 0
    outer loop
      vertex -4.70228 6.47214 20
      vertex -5.09939 6.16411 23
      vertex -4.70228 6.47214 23
    endloop
  endfacet
  facet normal -0.612908 0.790154 0
    outer loop
      vertex -5.09939 6.16411 23
      vertex -4.70228 6.47214 20
      vertex -5.09939 6.16411 20
    endloop
  endfacet
  facet normal 0.891007 -0.45399 0
    outer loop
      vertex 7.01045 -3.85403 23
      vertex 7.23862 -3.40623 20
      vertex 7.23862 -3.40623 23
    endloop
  endfacet
  facet normal 0.891007 -0.45399 0
    outer loop
      vertex 7.23862 -3.40623 20
      vertex 7.01045 -3.85403 23
      vertex 7.01045 -3.85403 20
    endloop
  endfacet
  facet normal 0.278991 -0.960294 0
    outer loop
      vertex 1.98952 -7.74866 20
      vertex 2.47214 -7.60845 23
      vertex 1.98952 -7.74866 23
    endloop
  endfacet
  facet normal 0.278991 -0.960294 0
    outer loop
      vertex 2.47214 -7.60845 23
      vertex 1.98952 -7.74866 20
      vertex 2.47214 -7.60845 20
    endloop
  endfacet
  facet normal 0.707107 -0.707107 0
    outer loop
      vertex 5.47638 -5.83175 23
      vertex 5.83175 -5.47638 20
      vertex 5.83175 -5.47638 23
    endloop
  endfacet
  facet normal 0.707107 -0.707107 0
    outer loop
      vertex 5.83175 -5.47638 20
      vertex 5.47638 -5.83175 23
      vertex 5.47638 -5.83175 20
    endloop
  endfacet
  facet normal 0.960294 -0.278991 0
    outer loop
      vertex 7.60845 -2.47214 23
      vertex 7.74866 -1.98952 20
      vertex 7.74866 -1.98952 23
    endloop
  endfacet
  facet normal 0.960294 -0.278991 0
    outer loop
      vertex 7.74866 -1.98952 20
      vertex 7.60845 -2.47214 23
      vertex 7.60845 -2.47214 20
    endloop
  endfacet
  facet normal -0.397148 -0.917755 0
    outer loop
      vertex -3.40623 -7.23862 20
      vertex -2.945 -7.43821 23
      vertex -3.40623 -7.23862 23
    endloop
  endfacet
  facet normal -0.397148 -0.917755 -0
    outer loop
      vertex -2.945 -7.43821 23
      vertex -3.40623 -7.23862 20
      vertex -2.945 -7.43821 20
    endloop
  endfacet
  facet normal 0.995562 0.0941071 0
    outer loop
      vertex 7.98421 0.502324 23
      vertex 7.93692 1.00267 20
      vertex 7.93692 1.00267 23
    endloop
  endfacet
  facet normal 0.995562 0.0941071 0
    outer loop
      vertex 7.93692 1.00267 20
      vertex 7.98421 0.502324 23
      vertex 7.98421 0.502324 20
    endloop
  endfacet
  facet normal 0.891007 0.45399 0
    outer loop
      vertex 7.23862 3.40623 23
      vertex 7.01045 3.85403 20
      vertex 7.01045 3.85403 23
    endloop
  endfacet
  facet normal 0.891007 0.45399 0
    outer loop
      vertex 7.01045 3.85403 20
      vertex 7.23862 3.40623 23
      vertex 7.23862 3.40623 20
    endloop
  endfacet
  facet normal 0.750112 0.661311 0
    outer loop
      vertex 6.16411 5.09939 23
      vertex 5.83175 5.47638 20
      vertex 5.83175 5.47638 23
    endloop
  endfacet
  facet normal 0.750112 0.661311 0
    outer loop
      vertex 5.83175 5.47638 20
      vertex 6.16411 5.09939 23
      vertex 6.16411 5.09939 20
    endloop
  endfacet
  facet normal 0.218143 0.975917 -0
    outer loop
      vertex 1.98952 7.74866 20
      vertex 1.49905 7.8583 23
      vertex 1.98952 7.74866 23
    endloop
  endfacet
  facet normal 0.218143 0.975917 0
    outer loop
      vertex 1.49905 7.8583 23
      vertex 1.98952 7.74866 20
      vertex 1.49905 7.8583 20
    endloop
  endfacet
  facet normal 0.338738 0.940881 -0
    outer loop
      vertex 2.945 7.43821 20
      vertex 2.47214 7.60845 23
      vertex 2.945 7.43821 23
    endloop
  endfacet
  facet normal 0.338738 0.940881 0
    outer loop
      vertex 2.47214 7.60845 23
      vertex 2.945 7.43821 20
      vertex 2.47214 7.60845 20
    endloop
  endfacet
  facet normal 0.156435 0.987688 -0
    outer loop
      vertex 1.49905 7.8583 20
      vertex 1.00267 7.93692 23
      vertex 1.49905 7.8583 23
    endloop
  endfacet
  facet normal 0.156435 0.987688 0
    outer loop
      vertex 1.00267 7.93692 23
      vertex 1.49905 7.8583 20
      vertex 1.00267 7.93692 20
    endloop
  endfacet
  facet normal 0.612908 0.790154 -0
    outer loop
      vertex 5.09939 6.16411 20
      vertex 4.70228 6.47214 23
      vertex 5.09939 6.16411 23
    endloop
  endfacet
  facet normal 0.612908 0.790154 0
    outer loop
      vertex 4.70228 6.47214 23
      vertex 5.09939 6.16411 20
      vertex 4.70228 6.47214 20
    endloop
  endfacet
  facet normal 0.562082 0.827082 -0
    outer loop
      vertex 4.70228 6.47214 20
      vertex 4.28661 6.75462 23
      vertex 4.70228 6.47214 23
    endloop
  endfacet
  facet normal 0.562082 0.827082 0
    outer loop
      vertex 4.28661 6.75462 23
      vertex 4.70228 6.47214 20
      vertex 4.28661 6.75462 20
    endloop
  endfacet
  facet normal -0.891007 0.45399 0
    outer loop
      vertex -7.23862 3.40623 20
      vertex -7.01045 3.85403 23
      vertex -7.01045 3.85403 20
    endloop
  endfacet
  facet normal -0.891007 0.45399 0
    outer loop
      vertex -7.01045 3.85403 23
      vertex -7.23862 3.40623 20
      vertex -7.23862 3.40623 23
    endloop
  endfacet
  facet normal -0.960294 0.278991 0
    outer loop
      vertex -7.74866 1.98952 20
      vertex -7.60845 2.47214 23
      vertex -7.60845 2.47214 20
    endloop
  endfacet
  facet normal -0.960294 0.278991 0
    outer loop
      vertex -7.60845 2.47214 23
      vertex -7.74866 1.98952 20
      vertex -7.74866 1.98952 23
    endloop
  endfacet
  facet normal -0.987688 0.156435 0
    outer loop
      vertex -7.93692 1.00267 20
      vertex -7.8583 1.49905 23
      vertex -7.8583 1.49905 20
    endloop
  endfacet
  facet normal -0.987688 0.156435 0
    outer loop
      vertex -7.8583 1.49905 23
      vertex -7.93692 1.00267 20
      vertex -7.93692 1.00267 23
    endloop
  endfacet
  facet normal -0.509043 0.860741 0
    outer loop
      vertex -3.85403 7.01045 20
      vertex -4.28661 6.75462 23
      vertex -3.85403 7.01045 23
    endloop
  endfacet
  facet normal -0.509043 0.860741 0
    outer loop
      vertex -4.28661 6.75462 23
      vertex -3.85403 7.01045 20
      vertex -4.28661 6.75462 20
    endloop
  endfacet
  facet normal -0.562082 0.827082 0
    outer loop
      vertex -4.28661 6.75462 20
      vertex -4.70228 6.47214 23
      vertex -4.28661 6.75462 23
    endloop
  endfacet
  facet normal -0.562082 0.827082 0
    outer loop
      vertex -4.70228 6.47214 23
      vertex -4.28661 6.75462 20
      vertex -4.70228 6.47214 20
    endloop
  endfacet
  facet normal -0.0941071 0.995562 0
    outer loop
      vertex -0.502324 7.98421 20
      vertex -1.00267 7.93692 23
      vertex -0.502324 7.98421 23
    endloop
  endfacet
  facet normal -0.0941071 0.995562 0
    outer loop
      vertex -1.00267 7.93692 23
      vertex -0.502324 7.98421 20
      vertex -1.00267 7.93692 20
    endloop
  endfacet
  facet normal -0.278991 0.960294 0
    outer loop
      vertex -1.98952 7.74866 20
      vertex -2.47214 7.60845 23
      vertex -1.98952 7.74866 23
    endloop
  endfacet
  facet normal -0.278991 0.960294 0
    outer loop
      vertex -2.47214 7.60845 23
      vertex -1.98952 7.74866 20
      vertex -2.47214 7.60845 20
    endloop
  endfacet
  facet normal -0.156435 0.987688 0
    outer loop
      vertex -1.00267 7.93692 20
      vertex -1.49905 7.8583 23
      vertex -1.00267 7.93692 23
    endloop
  endfacet
  facet normal -0.156435 0.987688 0
    outer loop
      vertex -1.49905 7.8583 23
      vertex -1.00267 7.93692 20
      vertex -1.49905 7.8583 20
    endloop
  endfacet
  facet normal 0.45399 -0.891007 0
    outer loop
      vertex 3.40623 -7.23862 20
      vertex 3.85403 -7.01045 23
      vertex 3.40623 -7.23862 23
    endloop
  endfacet
  facet normal 0.45399 -0.891007 0
    outer loop
      vertex 3.85403 -7.01045 23
      vertex 3.40623 -7.23862 20
      vertex 3.85403 -7.01045 20
    endloop
  endfacet
  facet normal -0.707107 -0.707107 0
    outer loop
      vertex -5.47638 -5.83175 20
      vertex -5.83175 -5.47638 23
      vertex -5.83175 -5.47638 20
    endloop
  endfacet
  facet normal -0.707107 -0.707107 0
    outer loop
      vertex -5.83175 -5.47638 23
      vertex -5.47638 -5.83175 20
      vertex -5.47638 -5.83175 23
    endloop
  endfacet
  facet normal -0.0941071 -0.995562 0
    outer loop
      vertex -1.00267 -7.93692 20
      vertex -0.502324 -7.98421 23
      vertex -1.00267 -7.93692 23
    endloop
  endfacet
  facet normal -0.0941071 -0.995562 -0
    outer loop
      vertex -0.502324 -7.98421 23
      vertex -1.00267 -7.93692 20
      vertex -0.502324 -7.98421 20
    endloop
  endfacet
  facet normal -0.612908 -0.790154 0
    outer loop
      vertex -5.09939 -6.16411 20
      vertex -4.70228 -6.47214 23
      vertex -5.09939 -6.16411 23
    endloop
  endfacet
  facet normal -0.612908 -0.790154 -0
    outer loop
      vertex -4.70228 -6.47214 23
      vertex -5.09939 -6.16411 20
      vertex -4.70228 -6.47214 20
    endloop
  endfacet
  facet normal -0.750112 -0.661311 0
    outer loop
      vertex -5.83175 -5.47638 20
      vertex -6.16411 -5.09939 23
      vertex -6.16411 -5.09939 20
    endloop
  endfacet
  facet normal -0.750112 -0.661311 0
    outer loop
      vertex -6.16411 -5.09939 23
      vertex -5.83175 -5.47638 20
      vertex -5.83175 -5.47638 23
    endloop
  endfacet
  facet normal -0.917755 -0.397148 0
    outer loop
      vertex -7.23862 -3.40623 20
      vertex -7.43821 -2.945 23
      vertex -7.43821 -2.945 20
    endloop
  endfacet
  facet normal -0.917755 -0.397148 0
    outer loop
      vertex -7.43821 -2.945 23
      vertex -7.23862 -3.40623 20
      vertex -7.23862 -3.40623 23
    endloop
  endfacet
  facet normal 0.917755 0.397148 0
    outer loop
      vertex 7.43821 2.945 23
      vertex 7.23862 3.40623 20
      vertex 7.23862 3.40623 23
    endloop
  endfacet
  facet normal 0.917755 0.397148 0
    outer loop
      vertex 7.23862 3.40623 20
      vertex 7.43821 2.945 23
      vertex 7.43821 2.945 20
    endloop
  endfacet
  facet normal 0.940881 0.338738 0
    outer loop
      vertex 7.60845 2.47214 23
      vertex 7.43821 2.945 20
      vertex 7.43821 2.945 23
    endloop
  endfacet
  facet normal 0.940881 0.338738 0
    outer loop
      vertex 7.43821 2.945 20
      vertex 7.60845 2.47214 23
      vertex 7.60845 2.47214 20
    endloop
  endfacet
  facet normal 0.790154 0.612908 0
    outer loop
      vertex 6.47214 4.70228 23
      vertex 6.16411 5.09939 20
      vertex 6.16411 5.09939 23
    endloop
  endfacet
  facet normal 0.790154 0.612908 0
    outer loop
      vertex 6.16411 5.09939 20
      vertex 6.47214 4.70228 23
      vertex 6.47214 4.70228 20
    endloop
  endfacet
  facet normal 0.860741 0.509043 0
    outer loop
      vertex 7.01045 3.85403 23
      vertex 6.75462 4.28661 20
      vertex 6.75462 4.28661 23
    endloop
  endfacet
  facet normal 0.860741 0.509043 0
    outer loop
      vertex 6.75462 4.28661 20
      vertex 7.01045 3.85403 23
      vertex 7.01045 3.85403 20
    endloop
  endfacet
  facet normal 0.827082 0.562082 0
    outer loop
      vertex 6.75462 4.28661 23
      vertex 6.47214 4.70228 20
      vertex 6.47214 4.70228 23
    endloop
  endfacet
  facet normal 0.827082 0.562082 0
    outer loop
      vertex 6.47214 4.70228 20
      vertex 6.75462 4.28661 23
      vertex 6.75462 4.28661 20
    endloop
  endfacet
  facet normal 0.0314127 0.999507 -0
    outer loop
      vertex 0.502324 7.98421 20
      vertex 0 8 23
      vertex 0.502324 7.98421 23
    endloop
  endfacet
  facet normal 0.0314127 0.999507 0
    outer loop
      vertex 0 8 23
      vertex 0.502324 7.98421 20
      vertex 0 8 20
    endloop
  endfacet
  facet normal 0.278991 0.960294 -0
    outer loop
      vertex 2.47214 7.60845 20
      vertex 1.98952 7.74866 23
      vertex 2.47214 7.60845 23
    endloop
  endfacet
  facet normal 0.278991 0.960294 0
    outer loop
      vertex 1.98952 7.74866 23
      vertex 2.47214 7.60845 20
      vertex 1.98952 7.74866 20
    endloop
  endfacet
  facet normal 0.397148 0.917755 -0
    outer loop
      vertex 3.40623 7.23862 20
      vertex 2.945 7.43821 23
      vertex 3.40623 7.23862 23
    endloop
  endfacet
  facet normal 0.397148 0.917755 0
    outer loop
      vertex 2.945 7.43821 23
      vertex 3.40623 7.23862 20
      vertex 2.945 7.43821 20
    endloop
  endfacet
  facet normal 0.509043 0.860741 -0
    outer loop
      vertex 4.28661 6.75462 20
      vertex 3.85403 7.01045 23
      vertex 4.28661 6.75462 23
    endloop
  endfacet
  facet normal 0.509043 0.860741 0
    outer loop
      vertex 3.85403 7.01045 23
      vertex 4.28661 6.75462 20
      vertex 3.85403 7.01045 20
    endloop
  endfacet
  facet normal 0.661311 0.750112 -0
    outer loop
      vertex 5.47638 5.83175 20
      vertex 5.09939 6.16411 23
      vertex 5.47638 5.83175 23
    endloop
  endfacet
  facet normal 0.661311 0.750112 0
    outer loop
      vertex 5.09939 6.16411 23
      vertex 5.47638 5.83175 20
      vertex 5.09939 6.16411 20
    endloop
  endfacet
  facet normal -0.999507 0.0314127 0
    outer loop
      vertex -8 0 20
      vertex -7.98421 0.502324 23
      vertex -7.98421 0.502324 20
    endloop
  endfacet
  facet normal -0.999507 0.0314127 0
    outer loop
      vertex -7.98421 0.502324 23
      vertex -8 0 20
      vertex -8 0 23
    endloop
  endfacet
  facet normal 0 0 1
    outer loop
      vertex 3.6 3.6 23
      vertex 8 0 23
      vertex 7.98421 0.502324 23
    endloop
  endfacet
  facet normal 0 0 1
    outer loop
      vertex 3.6 3.6 23
      vertex 7.98421 0.502324 23
      vertex 7.93692 1.00267 23
    endloop
  endfacet
  facet normal 0 0 1
    outer loop
      vertex 3.6 -3.6 23
      vertex 8 0 23
      vertex 3.6 3.6 23
    endloop
  endfacet
  facet normal 0 0 1
    outer loop
      vertex 3.6 3.6 23
      vertex 7.93692 1.00267 23
      vertex 7.8583 1.49905 23
    endloop
  endfacet
  facet normal 0 0 1
    outer loop
      vertex 8 0 23
      vertex 3.6 -3.6 23
      vertex 7.98421 -0.502324 23
    endloop
  endfacet
  facet normal 0 0 1
    outer loop
      vertex 3.6 3.6 23
      vertex 7.8583 1.49905 23
      vertex 7.74866 1.98952 23
    endloop
  endfacet
  facet normal 0 0 1
    outer loop
      vertex 7.98421 -0.502324 23
      vertex 3.6 -3.6 23
      vertex 7.93692 -1.00267 23
    endloop
  endfacet
  facet normal 0 0 1
    outer loop
      vertex 3.6 3.6 23
      vertex 7.74866 1.98952 23
      vertex 7.60845 2.47214 23
    endloop
  endfacet
  facet normal 0 0 1
    outer loop
      vertex 7.93692 -1.00267 23
      vertex 3.6 -3.6 23
      vertex 7.8583 -1.49905 23
    endloop
  endfacet
  facet normal 0 0 1
    outer loop
      vertex 3.6 3.6 23
      vertex 7.60845 2.47214 23
      vertex 7.43821 2.945 23
    endloop
  endfacet
  facet normal 0 0 1
    outer loop
      vertex 7.8583 -1.49905 23
      vertex 3.6 -3.6 23
      vertex 7.74866 -1.98952 23
    endloop
  endfacet
  facet normal 0 0 1
    outer loop
      vertex 3.6 3.6 23
      vertex 7.43821 2.945 23
      vertex 7.23862 3.40623 23
    endloop
  endfacet
  facet normal 0 0 1
    outer loop
      vertex 7.74866 -1.98952 23
      vertex 3.6 -3.6 23
      vertex 7.60845 -2.47214 23
    endloop
  endfacet
  facet normal -0 0 1
    outer loop
      vertex 3.6 3.6 23
      vertex 7.23862 3.40623 23
      vertex 7.01045 3.85403 23
    endloop
  endfacet
  facet normal 0 0 1
    outer loop
      vertex 7.60845 -2.47214 23
      vertex 3.6 -3.6 23
      vertex 7.43821 -2.945 23
    endloop
  endfacet
  facet normal 0 0 1
    outer loop
      vertex 3.6 3.6 23
      vertex 7.01045 3.85403 23
      vertex 6.75462 4.28661 23
    endloop
  endfacet
  facet normal 0 0 1
    outer loop
      vertex 7.43821 -2.945 23
      vertex 3.6 -3.6 23
      vertex 7.23862 -3.40623 23
    endloop
  endfacet
  facet normal 0 0 1
    outer loop
      vertex 3.6 3.6 23
      vertex 6.75462 4.28661 23
      vertex 6.47214 4.70228 23
    endloop
  endfacet
  facet normal 0 0 1
    outer loop
      vertex 7.23862 -3.40623 23
      vertex 3.6 -3.6 23
      vertex 7.01045 -3.85403 23
    endloop
  endfacet
  facet normal 0 0 1
    outer loop
      vertex 3.6 3.6 23
      vertex 6.47214 4.70228 23
      vertex 6.16411 5.09939 23
    endloop
  endfacet
  facet normal 0 0 1
    outer loop
      vertex 7.01045 -3.85403 23
      vertex 3.6 -3.6 23
      vertex 6.75462 -4.28661 23
    endloop
  endfacet
  facet normal 0 0 1
    outer loop
      vertex 3.6 3.6 23
      vertex 6.16411 5.09939 23
      vertex 5.83175 5.47638 23
    endloop
  endfacet
  facet normal 0 0 1
    outer loop
      vertex 6.75462 -4.28661 23
      vertex 3.6 -3.6 23
      vertex 6.47214 -4.70228 23
    endloop
  endfacet
  facet normal 0 0 1
    outer loop
      vertex 3.6 3.6 23
      vertex 5.83175 5.47638 23
      vertex 5.47638 5.83175 23
    endloop
  endfacet
  facet normal 0 0 1
    outer loop
      vertex 6.47214 -4.70228 23
      vertex 3.6 -3.6 23
      vertex 6.16411 -5.09939 23
    endloop
  endfacet
  facet normal 0 0 1
    outer loop
      vertex 3.6 3.6 23
      vertex 5.47638 5.83175 23
      vertex 5.09939 6.16411 23
    endloop
  endfacet
  facet normal 0 0 1
    outer loop
      vertex 6.16411 -5.09939 23
      vertex 3.6 -3.6 23
      vertex 5.83175 -5.47638 23
    endloop
  endfacet
  facet normal 0 0 1
    outer loop
      vertex 3.6 3.6 23
      vertex 5.09939 6.16411 23
      vertex 4.70228 6.47214 23
    endloop
  endfacet
  facet normal 0 0 1
    outer loop
      vertex 5.83175 -5.47638 23
      vertex 3.6 -3.6 23
      vertex 5.47638 -5.83175 23
    endloop
  endfacet
  facet normal 0 0 1
    outer loop
      vertex 3.6 3.6 23
      vertex 4.70228 6.47214 23
      vertex 4.28661 6.75462 23
    endloop
  endfacet
  facet normal 0 0 1
    outer loop
      vertex 5.47638 -5.83175 23
      vertex 3.6 -3.6 23
      vertex 5.09939 -6.16411 23
    endloop
  endfacet
  facet normal 0 0 1
    outer loop
      vertex 3.6 3.6 23
      vertex 4.28661 6.75462 23
      vertex 3.85403 7.01045 23
    endloop
  endfacet
  facet normal 0 0 1
    outer loop
      vertex 5.09939 -6.16411 23
      vertex 3.6 -3.6 23
      vertex 4.70228 -6.47214 23
    endloop
  endfacet
  facet normal 0 0 1
    outer loop
      vertex 4.70228 -6.47214 23
      vertex 3.6 -3.6 23
      vertex 4.28661 -6.75462 23
    endloop
  endfacet
  facet normal 0 0 1
    outer loop
      vertex 3.40623 7.23862 23
      vertex 3.6 3.6 23
      vertex 3.85403 7.01045 23
    endloop
  endfacet
  facet normal 0 0 1
    outer loop
      vertex 2.945 7.43821 23
      vertex 3.6 3.6 23
      vertex 3.40623 7.23862 23
    endloop
  endfacet
  facet normal 0 0 1
    outer loop
      vertex 2.47214 7.60845 23
      vertex 3.6 3.6 23
      vertex 2.945 7.43821 23
    endloop
  endfacet
  facet normal 0 0 1
    outer loop
      vertex 1.98952 7.74866 23
      vertex 3.6 3.6 23
      vertex 2.47214 7.60845 23
    endloop
  endfacet
  facet normal 0 0 1
    outer loop
      vertex 1.49905 7.8583 23
      vertex 3.6 3.6 23
      vertex 1.98952 7.74866 23
    endloop
  endfacet
  facet normal 0 0 1
    outer loop
      vertex 1.00267 7.93692 23
      vertex 3.6 3.6 23
      vertex 1.49905 7.8583 23
    endloop
  endfacet
  facet normal 0 0 1
    outer loop
      vertex 0.502324 7.98421 23
      vertex 3.6 3.6 23
      vertex 1.00267 7.93692 23
    endloop
  endfacet
  facet normal 0 0 1
    outer loop
      vertex 0 8 23
      vertex 3.6 3.6 23
      vertex 0.502324 7.98421 23
    endloop
  endfacet
  facet normal 0 0 1
    outer loop
      vertex -3.6 3.6 23
      vertex 0 8 23
      vertex -0.502324 7.98421 23
    endloop
  endfacet
  facet normal 0 0 1
    outer loop
      vertex -3.6 3.6 23
      vertex -0.502324 7.98421 23
      vertex -1.00267 7.93692 23
    endloop
  endfacet
  facet normal 0 0 1
    outer loop
      vertex -3.6 3.6 23
      vertex -1.00267 7.93692 23
      vertex -1.49905 7.8583 23
    endloop
  endfacet
  facet normal 0 0 1
    outer loop
      vertex -3.6 3.6 23
      vertex -1.49905 7.8583 23
      vertex -1.98952 7.74866 23
    endloop
  endfacet
  facet normal 0 0 1
    outer loop
      vertex -3.6 3.6 23
      vertex -1.98952 7.74866 23
      vertex -2.47214 7.60845 23
    endloop
  endfacet
  facet normal 0 0 1
    outer loop
      vertex -3.6 3.6 23
      vertex -2.47214 7.60845 23
      vertex -2.945 7.43821 23
    endloop
  endfacet
  facet normal 0 0 1
    outer loop
      vertex -3.6 3.6 23
      vertex -2.945 7.43821 23
      vertex -3.40623 7.23862 23
    endloop
  endfacet
  facet normal 0 0 1
    outer loop
      vertex 0 8 23
      vertex -3.6 3.6 23
      vertex 3.6 3.6 23
    endloop
  endfacet
  facet normal -0 0 1
    outer loop
      vertex -4.28661 6.75462 23
      vertex -3.6 3.6 23
      vertex -3.85403 7.01045 23
    endloop
  endfacet
  facet normal -0 0 1
    outer loop
      vertex -3.85403 7.01045 23
      vertex -3.6 3.6 23
      vertex -3.40623 7.23862 23
    endloop
  endfacet
  facet normal 0 0 1
    outer loop
      vertex 4.28661 -6.75462 23
      vertex 3.6 -3.6 23
      vertex 3.85403 -7.01045 23
    endloop
  endfacet
  facet normal 0 0 1
    outer loop
      vertex 3.6 -3.6 23
      vertex 3.40623 -7.23862 23
      vertex 3.85403 -7.01045 23
    endloop
  endfacet
  facet normal 0 0 1
    outer loop
      vertex 3.6 -3.6 23
      vertex 2.945 -7.43821 23
      vertex 3.40623 -7.23862 23
    endloop
  endfacet
  facet normal 0 0 1
    outer loop
      vertex 3.6 -3.6 23
      vertex 2.47214 -7.60845 23
      vertex 2.945 -7.43821 23
    endloop
  endfacet
  facet normal 0 0 1
    outer loop
      vertex 3.6 -3.6 23
      vertex 1.98952 -7.74866 23
      vertex 2.47214 -7.60845 23
    endloop
  endfacet
  facet normal 0 0 1
    outer loop
      vertex 3.6 -3.6 23
      vertex 1.49905 -7.8583 23
      vertex 1.98952 -7.74866 23
    endloop
  endfacet
  facet normal 0 0 1
    outer loop
      vertex 3.6 -3.6 23
      vertex 1.00267 -7.93692 23
      vertex 1.49905 -7.8583 23
    endloop
  endfacet
  facet normal 0 0 1
    outer loop
      vertex 3.6 -3.6 23
      vertex 0.502324 -7.98421 23
      vertex 1.00267 -7.93692 23
    endloop
  endfacet
  facet normal 0 0 1
    outer loop
      vertex 3.6 -3.6 23
      vertex 0 -8 23
      vertex 0.502324 -7.98421 23
    endloop
  endfacet
  facet normal -0 0 1
    outer loop
      vertex -3.6 -3.6 23
      vertex 0 -8 23
      vertex 3.6 -3.6 23
    endloop
  endfacet
  facet normal 0 0 1
    outer loop
      vertex 0 -8 23
      vertex -3.6 -3.6 23
      vertex -0.502324 -7.98421 23
    endloop
  endfacet
  facet normal 0 0 1
    outer loop
      vertex -0.502324 -7.98421 23
      vertex -3.6 -3.6 23
      vertex -1.00267 -7.93692 23
    endloop
  endfacet
  facet normal 0 0 1
    outer loop
      vertex -1.00267 -7.93692 23
      vertex -3.6 -3.6 23
      vertex -1.49905 -7.8583 23
    endloop
  endfacet
  facet normal 0 0 1
    outer loop
      vertex -1.49905 -7.8583 23
      vertex -3.6 -3.6 23
      vertex -1.98952 -7.74866 23
    endloop
  endfacet
  facet normal 0 0 1
    outer loop
      vertex -1.98952 -7.74866 23
      vertex -3.6 -3.6 23
      vertex -2.47214 -7.60845 23
    endloop
  endfacet
  facet normal 0 0 1
    outer loop
      vertex -2.47214 -7.60845 23
      vertex -3.6 -3.6 23
      vertex -2.945 -7.43821 23
    endloop
  endfacet
  facet normal 0 0 1
    outer loop
      vertex -2.945 -7.43821 23
      vertex -3.6 -3.6 23
      vertex -3.40623 -7.23862 23
    endloop
  endfacet
  facet normal 0 0 1
    outer loop
      vertex -3.6 -3.6 23
      vertex -3.85403 -7.01045 23
      vertex -3.40623 -7.23862 23
    endloop
  endfacet
  facet normal -0 0 1
    outer loop
      vertex -4.70228 6.47214 23
      vertex -3.6 3.6 23
      vertex -4.28661 6.75462 23
    endloop
  endfacet
  facet normal -0 0 1
    outer loop
      vertex -5.09939 6.16411 23
      vertex -3.6 3.6 23
      vertex -4.70228 6.47214 23
    endloop
  endfacet
  facet normal 0 0 1
    outer loop
      vertex -3.6 -3.6 23
      vertex -4.28661 -6.75462 23
      vertex -3.85403 -7.01045 23
    endloop
  endfacet
  facet normal -0 0 1
    outer loop
      vertex -5.47638 5.83175 23
      vertex -3.6 3.6 23
      vertex -5.09939 6.16411 23
    endloop
  endfacet
  facet normal 0 0 1
    outer loop
      vertex -3.6 -3.6 23
      vertex -4.70228 -6.47214 23
      vertex -4.28661 -6.75462 23
    endloop
  endfacet
  facet normal -0 0 1
    outer loop
      vertex -5.83175 5.47638 23
      vertex -3.6 3.6 23
      vertex -5.47638 5.83175 23
    endloop
  endfacet
  facet normal 0 0 1
    outer loop
      vertex -3.6 -3.6 23
      vertex -5.09939 -6.16411 23
      vertex -4.70228 -6.47214 23
    endloop
  endfacet
  facet normal -0 0 1
    outer loop
      vertex -6.16411 5.09939 23
      vertex -3.6 3.6 23
      vertex -5.83175 5.47638 23
    endloop
  endfacet
  facet normal 0 0 1
    outer loop
      vertex -3.6 -3.6 23
      vertex -5.47638 -5.83175 23
      vertex -5.09939 -6.16411 23
    endloop
  endfacet
  facet normal -0 0 1
    outer loop
      vertex -6.47214 4.70228 23
      vertex -3.6 3.6 23
      vertex -6.16411 5.09939 23
    endloop
  endfacet
  facet normal 0 0 1
    outer loop
      vertex -3.6 -3.6 23
      vertex -5.83175 -5.47638 23
      vertex -5.47638 -5.83175 23
    endloop
  endfacet
  facet normal -0 0 1
    outer loop
      vertex -6.75462 4.28661 23
      vertex -3.6 3.6 23
      vertex -6.47214 4.70228 23
    endloop
  endfacet
  facet normal 0 0 1
    outer loop
      vertex -3.6 -3.6 23
      vertex -6.16411 -5.09939 23
      vertex -5.83175 -5.47638 23
    endloop
  endfacet
  facet normal -0 0 1
    outer loop
      vertex -7.01045 3.85403 23
      vertex -3.6 3.6 23
      vertex -6.75462 4.28661 23
    endloop
  endfacet
  facet normal 0 0 1
    outer loop
      vertex -3.6 -3.6 23
      vertex -6.47214 -4.70228 23
      vertex -6.16411 -5.09939 23
    endloop
  endfacet
  facet normal 0 0 1
    outer loop
      vertex -7.23862 3.40623 23
      vertex -3.6 3.6 23
      vertex -7.01045 3.85403 23
    endloop
  endfacet
  facet normal 0 0 1
    outer loop
      vertex -3.6 -3.6 23
      vertex -6.75462 -4.28661 23
      vertex -6.47214 -4.70228 23
    endloop
  endfacet
  facet normal 0 0 1
    outer loop
      vertex -7.43821 2.945 23
      vertex -3.6 3.6 23
      vertex -7.23862 3.40623 23
    endloop
  endfacet
  facet normal 0 0 1
    outer loop
      vertex -3.6 -3.6 23
      vertex -7.01045 -3.85403 23
      vertex -6.75462 -4.28661 23
    endloop
  endfacet
  facet normal 0 0 1
    outer loop
      vertex -7.60845 2.47214 23
      vertex -3.6 3.6 23
      vertex -7.43821 2.945 23
    endloop
  endfacet
  facet normal 0 0 1
    outer loop
      vertex -3.6 -3.6 23
      vertex -7.23862 -3.40623 23
      vertex -7.01045 -3.85403 23
    endloop
  endfacet
  facet normal 0 0 1
    outer loop
      vertex -7.74866 1.98952 23
      vertex -3.6 3.6 23
      vertex -7.60845 2.47214 23
    endloop
  endfacet
  facet normal 0 0 1
    outer loop
      vertex -3.6 -3.6 23
      vertex -7.43821 -2.945 23
      vertex -7.23862 -3.40623 23
    endloop
  endfacet
  facet normal 0 0 1
    outer loop
      vertex -7.8583 1.49905 23
      vertex -3.6 3.6 23
      vertex -7.74866 1.98952 23
    endloop
  endfacet
  facet normal 0 0 1
    outer loop
      vertex -3.6 -3.6 23
      vertex -7.60845 -2.47214 23
      vertex -7.43821 -2.945 23
    endloop
  endfacet
  facet normal 0 0 1
    outer loop
      vertex -7.93692 1.00267 23
      vertex -3.6 3.6 23
      vertex -7.8583 1.49905 23
    endloop
  endfacet
  facet normal 0 0 1
    outer loop
      vertex -3.6 -3.6 23
      vertex -7.74866 -1.98952 23
      vertex -7.60845 -2.47214 23
    endloop
  endfacet
  facet normal 0 0 1
    outer loop
      vertex -7.98421 0.502324 23
      vertex -3.6 3.6 23
      vertex -7.93692 1.00267 23
    endloop
  endfacet
  facet normal 0 0 1
    outer loop
      vertex -3.6 -3.6 23
      vertex -7.8583 -1.49905 23
      vertex -7.74866 -1.98952 23
    endloop
  endfacet
  facet normal 0 0 1
    outer loop
      vertex -8 0 23
      vertex -3.6 3.6 23
      vertex -7.98421 0.502324 23
    endloop
  endfacet
  facet normal 0 0 1
    outer loop
      vertex -3.6 -3.6 23
      vertex -7.93692 -1.00267 23
      vertex -7.8583 -1.49905 23
    endloop
  endfacet
  facet normal 0 0 1
    outer loop
      vertex -3.6 3.6 23
      vertex -8 0 23
      vertex -3.6 -3.6 23
    endloop
  endfacet
  facet normal 0 0 1
    outer loop
      vertex -3.6 -3.6 23
      vertex -7.98421 -0.502324 23
      vertex -7.93692 -1.00267 23
    endloop
  endfacet
  facet normal 0 0 1
    outer loop
      vertex -3.6 -3.6 23
      vertex -8 0 23
      vertex -7.98421 -0.502324 23
    endloop
  endfacet
  facet normal -0.860741 0.509043 0
    outer loop
      vertex -7.01045 3.85403 20
      vertex -6.75462 4.28661 23
      vertex -6.75462 4.28661 20
    endloop
  endfacet
  facet normal -0.860741 0.509043 0
    outer loop
      vertex -6.75462 4.28661 23
      vertex -7.01045 3.85403 20
      vertex -7.01045 3.85403 23
    endloop
  endfacet
  facet normal -0.917755 0.397148 0
    outer loop
      vertex -7.43821 2.945 20
      vertex -7.23862 3.40623 23
      vertex -7.23862 3.40623 20
    endloop
  endfacet
  facet normal -0.917755 0.397148 0
    outer loop
      vertex -7.23862 3.40623 23
      vertex -7.43821 2.945 20
      vertex -7.43821 2.945 23
    endloop
  endfacet
  facet normal -0.940881 0.338738 0
    outer loop
      vertex -7.60845 2.47214 20
      vertex -7.43821 2.945 23
      vertex -7.43821 2.945 20
    endloop
  endfacet
  facet normal -0.940881 0.338738 0
    outer loop
      vertex -7.43821 2.945 23
      vertex -7.60845 2.47214 20
      vertex -7.60845 2.47214 23
    endloop
  endfacet
  facet normal -0.975917 0.218143 0
    outer loop
      vertex -7.8583 1.49905 20
      vertex -7.74866 1.98952 23
      vertex -7.74866 1.98952 20
    endloop
  endfacet
  facet normal -0.975917 0.218143 0
    outer loop
      vertex -7.74866 1.98952 23
      vertex -7.8583 1.49905 20
      vertex -7.8583 1.49905 23
    endloop
  endfacet
  facet normal -0.661311 0.750112 0
    outer loop
      vertex -5.09939 6.16411 20
      vertex -5.47638 5.83175 23
      vertex -5.09939 6.16411 23
    endloop
  endfacet
  facet normal -0.661311 0.750112 0
    outer loop
      vertex -5.47638 5.83175 23
      vertex -5.09939 6.16411 20
      vertex -5.47638 5.83175 20
    endloop
  endfacet
  facet normal -0.397148 0.917755 0
    outer loop
      vertex -2.945 7.43821 20
      vertex -3.40623 7.23862 23
      vertex -2.945 7.43821 23
    endloop
  endfacet
  facet normal -0.397148 0.917755 0
    outer loop
      vertex -3.40623 7.23862 23
      vertex -2.945 7.43821 20
      vertex -3.40623 7.23862 20
    endloop
  endfacet
  facet normal -0.45399 0.891007 0
    outer loop
      vertex -3.40623 7.23862 20
      vertex -3.85403 7.01045 23
      vertex -3.40623 7.23862 23
    endloop
  endfacet
  facet normal -0.45399 0.891007 0
    outer loop
      vertex -3.85403 7.01045 23
      vertex -3.40623 7.23862 20
      vertex -3.85403 7.01045 20
    endloop
  endfacet
  facet normal -0.218143 0.975917 0
    outer loop
      vertex -1.49905 7.8583 20
      vertex -1.98952 7.74866 23
      vertex -1.49905 7.8583 23
    endloop
  endfacet
  facet normal -0.218143 0.975917 0
    outer loop
      vertex -1.98952 7.74866 23
      vertex -1.49905 7.8583 20
      vertex -1.98952 7.74866 20
    endloop
  endfacet
  facet normal -0.0314127 0.999507 0
    outer loop
      vertex 0 8 20
      vertex -0.502324 7.98421 23
      vertex 0 8 23
    endloop
  endfacet
  facet normal -0.0314127 0.999507 0
    outer loop
      vertex -0.502324 7.98421 23
      vertex 0 8 20
      vertex -0.502324 7.98421 20
    endloop
  endfacet
  facet normal 0.995562 -0.0941071 0
    outer loop
      vertex 7.93692 -1.00267 23
      vertex 7.98421 -0.502324 20
      vertex 7.98421 -0.502324 23
    endloop
  endfacet
  facet normal 0.995562 -0.0941071 0
    outer loop
      vertex 7.98421 -0.502324 20
      vertex 7.93692 -1.00267 23
      vertex 7.93692 -1.00267 20
    endloop
  endfacet
  facet normal 0.0314127 -0.999507 0
    outer loop
      vertex 0 -8 20
      vertex 0.502324 -7.98421 23
      vertex 0 -8 23
    endloop
  endfacet
  facet normal 0.0314127 -0.999507 0
    outer loop
      vertex 0.502324 -7.98421 23
      vertex 0 -8 20
      vertex 0.502324 -7.98421 20
    endloop
  endfacet
  facet normal 0.156435 -0.987688 0
    outer loop
      vertex 1.00267 -7.93692 20
      vertex 1.49905 -7.8583 23
      vertex 1.00267 -7.93692 23
    endloop
  endfacet
  facet normal 0.156435 -0.987688 0
    outer loop
      vertex 1.49905 -7.8583 23
      vertex 1.00267 -7.93692 20
      vertex 1.49905 -7.8583 20
    endloop
  endfacet
  facet normal 0.397148 -0.917755 0
    outer loop
      vertex 2.945 -7.43821 20
      vertex 3.40623 -7.23862 23
      vertex 2.945 -7.43821 23
    endloop
  endfacet
  facet normal 0.397148 -0.917755 0
    outer loop
      vertex 3.40623 -7.23862 23
      vertex 2.945 -7.43821 20
      vertex 3.40623 -7.23862 20
    endloop
  endfacet
  facet normal 0.338738 -0.940881 0
    outer loop
      vertex 2.47214 -7.60845 20
      vertex 2.945 -7.43821 23
      vertex 2.47214 -7.60845 23
    endloop
  endfacet
  facet normal 0.338738 -0.940881 0
    outer loop
      vertex 2.945 -7.43821 23
      vertex 2.47214 -7.60845 20
      vertex 2.945 -7.43821 20
    endloop
  endfacet
  facet normal 0.612908 -0.790154 0
    outer loop
      vertex 4.70228 -6.47214 20
      vertex 5.09939 -6.16411 23
      vertex 4.70228 -6.47214 23
    endloop
  endfacet
  facet normal 0.612908 -0.790154 0
    outer loop
      vertex 5.09939 -6.16411 23
      vertex 4.70228 -6.47214 20
      vertex 5.09939 -6.16411 20
    endloop
  endfacet
  facet normal 0.509043 -0.860741 0
    outer loop
      vertex 3.85403 -7.01045 20
      vertex 4.28661 -6.75462 23
      vertex 3.85403 -7.01045 23
    endloop
  endfacet
  facet normal 0.509043 -0.860741 0
    outer loop
      vertex 4.28661 -6.75462 23
      vertex 3.85403 -7.01045 20
      vertex 4.28661 -6.75462 20
    endloop
  endfacet
  facet normal 0.562082 -0.827082 0
    outer loop
      vertex 4.28661 -6.75462 20
      vertex 4.70228 -6.47214 23
      vertex 4.28661 -6.75462 23
    endloop
  endfacet
  facet normal 0.562082 -0.827082 0
    outer loop
      vertex 4.70228 -6.47214 23
      vertex 4.28661 -6.75462 20
      vertex 4.70228 -6.47214 20
    endloop
  endfacet
  facet normal 0.750112 -0.661311 0
    outer loop
      vertex 5.83175 -5.47638 23
      vertex 6.16411 -5.09939 20
      vertex 6.16411 -5.09939 23
    endloop
  endfacet
  facet normal 0.750112 -0.661311 0
    outer loop
      vertex 6.16411 -5.09939 20
      vertex 5.83175 -5.47638 23
      vertex 5.83175 -5.47638 20
    endloop
  endfacet
  facet normal 0.827082 -0.562082 0
    outer loop
      vertex 6.47214 -4.70228 23
      vertex 6.75462 -4.28661 20
      vertex 6.75462 -4.28661 23
    endloop
  endfacet
  facet normal 0.827082 -0.562082 0
    outer loop
      vertex 6.75462 -4.28661 20
      vertex 6.47214 -4.70228 23
      vertex 6.47214 -4.70228 20
    endloop
  endfacet
  facet normal 0.940881 -0.338738 0
    outer loop
      vertex 7.43821 -2.945 23
      vertex 7.60845 -2.47214 20
      vertex 7.60845 -2.47214 23
    endloop
  endfacet
  facet normal 0.940881 -0.338738 0
    outer loop
      vertex 7.60845 -2.47214 20
      vertex 7.43821 -2.945 23
      vertex 7.43821 -2.945 20
    endloop
  endfacet
  facet normal 0.917755 -0.397148 0
    outer loop
      vertex 7.23862 -3.40623 23
      vertex 7.43821 -2.945 20
      vertex 7.43821 -2.945 23
    endloop
  endfacet
  facet normal 0.917755 -0.397148 0
    outer loop
      vertex 7.43821 -2.945 20
      vertex 7.23862 -3.40623 23
      vertex 7.23862 -3.40623 20
    endloop
  endfacet
  facet normal 0.975917 -0.218143 0
    outer loop
      vertex 7.74866 -1.98952 23
      vertex 7.8583 -1.49905 20
      vertex 7.8583 -1.49905 23
    endloop
  endfacet
  facet normal 0.975917 -0.218143 0
    outer loop
      vertex 7.8583 -1.49905 20
      vertex 7.74866 -1.98952 23
      vertex 7.74866 -1.98952 20
    endloop
  endfacet
  facet normal -0.278991 -0.960294 0
    outer loop
      vertex -2.47214 -7.60845 20
      vertex -1.98952 -7.74866 23
      vertex -2.47214 -7.60845 23
    endloop
  endfacet
  facet normal -0.278991 -0.960294 -0
    outer loop
      vertex -1.98952 -7.74866 23
      vertex -2.47214 -7.60845 20
      vertex -1.98952 -7.74866 20
    endloop
  endfacet
  facet normal -0.218143 -0.975917 0
    outer loop
      vertex -1.98952 -7.74866 20
      vertex -1.49905 -7.8583 23
      vertex -1.98952 -7.74866 23
    endloop
  endfacet
  facet normal -0.218143 -0.975917 -0
    outer loop
      vertex -1.49905 -7.8583 23
      vertex -1.98952 -7.74866 20
      vertex -1.49905 -7.8583 20
    endloop
  endfacet
  facet normal -0.562082 -0.827082 0
    outer loop
      vertex -4.70228 -6.47214 20
      vertex -4.28661 -6.75462 23
      vertex -4.70228 -6.47214 23
    endloop
  endfacet
  facet normal -0.562082 -0.827082 -0
    outer loop
      vertex -4.28661 -6.75462 23
      vertex -4.70228 -6.47214 20
      vertex -4.28661 -6.75462 20
    endloop
  endfacet
  facet normal -0.45399 -0.891007 0
    outer loop
      vertex -3.85403 -7.01045 20
      vertex -3.40623 -7.23862 23
      vertex -3.85403 -7.01045 23
    endloop
  endfacet
  facet normal -0.45399 -0.891007 -0
    outer loop
      vertex -3.40623 -7.23862 23
      vertex -3.85403 -7.01045 20
      vertex -3.40623 -7.23862 20
    endloop
  endfacet
  facet normal -0.661311 -0.750112 0
    outer loop
      vertex -5.47638 -5.83175 20
      vertex -5.09939 -6.16411 23
      vertex -5.47638 -5.83175 23
    endloop
  endfacet
  facet normal -0.661311 -0.750112 -0
    outer loop
      vertex -5.09939 -6.16411 23
      vertex -5.47638 -5.83175 20
      vertex -5.09939 -6.16411 20
    endloop
  endfacet
  facet normal -0.790154 -0.612908 0
    outer loop
      vertex -6.16411 -5.09939 20
      vertex -6.47214 -4.70228 23
      vertex -6.47214 -4.70228 20
    endloop
  endfacet
  facet normal -0.790154 -0.612908 0
    outer loop
      vertex -6.47214 -4.70228 23
      vertex -6.16411 -5.09939 20
      vertex -6.16411 -5.09939 23
    endloop
  endfacet
  facet normal -0.860741 -0.509043 0
    outer loop
      vertex -6.75462 -4.28661 20
      vertex -7.01045 -3.85403 23
      vertex -7.01045 -3.85403 20
    endloop
  endfacet
  facet normal -0.860741 -0.509043 0
    outer loop
      vertex -7.01045 -3.85403 23
      vertex -6.75462 -4.28661 20
      vertex -6.75462 -4.28661 23
    endloop
  endfacet
  facet normal -0.987688 -0.156435 0
    outer loop
      vertex -7.8583 -1.49905 20
      vertex -7.93692 -1.00267 23
      vertex -7.93692 -1.00267 20
    endloop
  endfacet
  facet normal -0.987688 -0.156435 0
    outer loop
      vertex -7.93692 -1.00267 23
      vertex -7.8583 -1.49905 20
      vertex -7.8583 -1.49905 23
    endloop
  endfacet
  facet normal -0.999507 -0.0314127 0
    outer loop
      vertex -7.98421 -0.502324 20
      vertex -8 0 23
      vertex -8 0 20
    endloop
  endfacet
  facet normal -0.999507 -0.0314127 0
    outer loop
      vertex -8 0 23
      vertex -7.98421 -0.502324 20
      vertex -7.98421 -0.502324 23
    endloop
  endfacet
  facet normal -0.960294 -0.278991 0
    outer loop
      vertex -7.60845 -2.47214 20
      vertex -7.74866 -1.98952 23
      vertex -7.74866 -1.98952 20
    endloop
  endfacet
  facet normal -0.960294 -0.278991 0
    outer loop
      vertex -7.74866 -1.98952 23
      vertex -7.60845 -2.47214 20
      vertex -7.60845 -2.47214 23
    endloop
  endfacet
  facet normal -0.940881 -0.338738 0
    outer loop
      vertex -7.43821 -2.945 20
      vertex -7.60845 -2.47214 23
      vertex -7.60845 -2.47214 20
    endloop
  endfacet
  facet normal -0.940881 -0.338738 0
    outer loop
      vertex -7.60845 -2.47214 23
      vertex -7.43821 -2.945 20
      vertex -7.43821 -2.945 23
    endloop
  endfacet
  facet normal -0.975917 -0.218143 0
    outer loop
      vertex -7.74866 -1.98952 20
      vertex -7.8583 -1.49905 23
      vertex -7.8583 -1.49905 20
    endloop
  endfacet
  facet normal -0.975917 -0.218143 0
    outer loop
      vertex -7.8583 -1.49905 23
      vertex -7.74866 -1.98952 20
      vertex -7.74866 -1.98952 23
    endloop
  endfacet
  facet normal 0.975917 0.218143 0
    outer loop
      vertex 7.8583 1.49905 23
      vertex 7.74866 1.98952 20
      vertex 7.74866 1.98952 23
    endloop
  endfacet
  facet normal 0.975917 0.218143 0
    outer loop
      vertex 7.74866 1.98952 20
      vertex 7.8583 1.49905 23
      vertex 7.8583 1.49905 20
    endloop
  endfacet
  facet normal 0.987688 0.156435 0
    outer loop
      vertex 7.93692 1.00267 23
      vertex 7.8583 1.49905 20
      vertex 7.8583 1.49905 23
    endloop
  endfacet
  facet normal 0.987688 0.156435 0
    outer loop
      vertex 7.8583 1.49905 20
      vertex 7.93692 1.00267 23
      vertex 7.93692 1.00267 20
    endloop
  endfacet
  facet normal -0.790154 0.612908 0
    outer loop
      vertex -6.47214 4.70228 20
      vertex -6.16411 5.09939 23
      vertex -6.16411 5.09939 20
    endloop
  endfacet
  facet normal -0.790154 0.612908 0
    outer loop
      vertex -6.16411 5.09939 23
      vertex -6.47214 4.70228 20
      vertex -6.47214 4.70228 23
    endloop
  endfacet
  facet normal -0.750112 0.661311 0
    outer loop
      vertex -6.16411 5.09939 20
      vertex -5.83175 5.47638 23
      vertex -5.83175 5.47638 20
    endloop
  endfacet
  facet normal -0.750112 0.661311 0
    outer loop
      vertex -5.83175 5.47638 23
      vertex -6.16411 5.09939 20
      vertex -6.16411 5.09939 23
    endloop
  endfacet
  facet normal -0.707107 0.707107 0
    outer loop
      vertex -5.83175 5.47638 20
      vertex -5.47638 5.83175 23
      vertex -5.47638 5.83175 20
    endloop
  endfacet
  facet normal -0.707107 0.707107 0
    outer loop
      vertex -5.47638 5.83175 23
      vertex -5.83175 5.47638 20
      vertex -5.83175 5.47638 23
    endloop
  endfacet
  facet normal 0.218143 -0.975917 0
    outer loop
      vertex 1.49905 -7.8583 20
      vertex 1.98952 -7.74866 23
      vertex 1.49905 -7.8583 23
    endloop
  endfacet
  facet normal 0.218143 -0.975917 0
    outer loop
      vertex 1.98952 -7.74866 23
      vertex 1.49905 -7.8583 20
      vertex 1.98952 -7.74866 20
    endloop
  endfacet
  facet normal 0.661311 -0.750112 0
    outer loop
      vertex 5.09939 -6.16411 20
      vertex 5.47638 -5.83175 23
      vertex 5.09939 -6.16411 23
    endloop
  endfacet
  facet normal 0.661311 -0.750112 0
    outer loop
      vertex 5.47638 -5.83175 23
      vertex 5.09939 -6.16411 20
      vertex 5.47638 -5.83175 20
    endloop
  endfacet
  facet normal 0.860741 -0.509043 0
    outer loop
      vertex 6.75462 -4.28661 23
      vertex 7.01045 -3.85403 20
      vertex 7.01045 -3.85403 23
    endloop
  endfacet
  facet normal 0.860741 -0.509043 0
    outer loop
      vertex 7.01045 -3.85403 20
      vertex 6.75462 -4.28661 23
      vertex 6.75462 -4.28661 20
    endloop
  endfacet
  facet normal 0.999507 -0.0314127 0
    outer loop
      vertex 7.98421 -0.502324 23
      vertex 8 0 20
      vertex 8 0 23
    endloop
  endfacet
  facet normal 0.999507 -0.0314127 0
    outer loop
      vertex 8 0 20
      vertex 7.98421 -0.502324 23
      vertex 7.98421 -0.502324 20
    endloop
  endfacet
  facet normal -0.338738 -0.940881 0
    outer loop
      vertex -2.945 -7.43821 20
      vertex -2.47214 -7.60845 23
      vertex -2.945 -7.43821 23
    endloop
  endfacet
  facet normal -0.338738 -0.940881 -0
    outer loop
      vertex -2.47214 -7.60845 23
      vertex -2.945 -7.43821 20
      vertex -2.47214 -7.60845 20
    endloop
  endfacet
  facet normal -0.0314127 -0.999507 0
    outer loop
      vertex -0.502324 -7.98421 20
      vertex 0 -8 23
      vertex -0.502324 -7.98421 23
    endloop
  endfacet
  facet normal -0.0314127 -0.999507 -0
    outer loop
      vertex 0 -8 23
      vertex -0.502324 -7.98421 20
      vertex 0 -8 20
    endloop
  endfacet
  facet normal -0.156435 -0.987688 0
    outer loop
      vertex -1.49905 -7.8583 20
      vertex -1.00267 -7.93692 23
      vertex -1.49905 -7.8583 23
    endloop
  endfacet
  facet normal -0.156435 -0.987688 -0
    outer loop
      vertex -1.00267 -7.93692 23
      vertex -1.49905 -7.8583 20
      vertex -1.00267 -7.93692 20
    endloop
  endfacet
  facet normal -0.509043 -0.860741 0
    outer loop
      vertex -4.28661 -6.75462 20
      vertex -3.85403 -7.01045 23
      vertex -4.28661 -6.75462 23
    endloop
  endfacet
  facet normal -0.509043 -0.860741 -0
    outer loop
      vertex -3.85403 -7.01045 23
      vertex -4.28661 -6.75462 20
      vertex -3.85403 -7.01045 20
    endloop
  endfacet
  facet normal -0.891007 -0.45399 0
    outer loop
      vertex -7.01045 -3.85403 20
      vertex -7.23862 -3.40623 23
      vertex -7.23862 -3.40623 20
    endloop
  endfacet
  facet normal -0.891007 -0.45399 0
    outer loop
      vertex -7.23862 -3.40623 23
      vertex -7.01045 -3.85403 20
      vertex -7.01045 -3.85403 23
    endloop
  endfacet
  facet normal -0.995562 -0.0941071 0
    outer loop
      vertex -7.93692 -1.00267 20
      vertex -7.98421 -0.502324 23
      vertex -7.98421 -0.502324 20
    endloop
  endfacet
  facet normal -0.995562 -0.0941071 0
    outer loop
      vertex -7.98421 -0.502324 23
      vertex -7.93692 -1.00267 20
      vertex -7.93692 -1.00267 23
    endloop
  endfacet
  facet normal 0.0941071 -0.995562 0
    outer loop
      vertex 0.502324 -7.98421 20
      vertex 1.00267 -7.93692 23
      vertex 0.502324 -7.98421 23
    endloop
  endfacet
  facet normal 0.0941071 -0.995562 0
    outer loop
      vertex 1.00267 -7.93692 23
      vertex 0.502324 -7.98421 20
      vertex 1.00267 -7.93692 20
    endloop
  endfacet
  facet normal 0.790154 -0.612908 0
    outer loop
      vertex 6.16411 -5.09939 23
      vertex 6.47214 -4.70228 20
      vertex 6.47214 -4.70228 23
    endloop
  endfacet
  facet normal 0.790154 -0.612908 0
    outer loop
      vertex 6.47214 -4.70228 20
      vertex 6.16411 -5.09939 23
      vertex 6.16411 -5.09939 20
    endloop
  endfacet
  facet normal 0.987688 -0.156435 0
    outer loop
      vertex 7.8583 -1.49905 23
      vertex 7.93692 -1.00267 20
      vertex 7.93692 -1.00267 23
    endloop
  endfacet
  facet normal 0.987688 -0.156435 0
    outer loop
      vertex 7.93692 -1.00267 20
      vertex 7.8583 -1.49905 23
      vertex 7.8583 -1.49905 20
    endloop
  endfacet
  facet normal -0.88192 -0.471398 0
    outer loop
      vertex 2.12492 0.880172 0
      vertex 1.91238 1.27781 20.6
      vertex 1.91238 1.27781 0
    endloop
  endfacet
  facet normal -0.88192 -0.471398 0
    outer loop
      vertex 1.91238 1.27781 20.6
      vertex 2.12492 0.880172 0
      vertex 2.12492 0.880172 20.6
    endloop
  endfacet
  facet normal 0.95694 -0.290285 0
    outer loop
      vertex -2.25581 0.448708 20.6
      vertex -2.12492 0.880172 0
      vertex -2.12492 0.880172 20.6
    endloop
  endfacet
  facet normal 0.95694 -0.290285 0
    outer loop
      vertex -2.12492 0.880172 0
      vertex -2.25581 0.448708 20.6
      vertex -2.25581 0.448708 0
    endloop
  endfacet
  facet normal -0.77301 -0.634394 0
    outer loop
      vertex 1.91238 1.27781 0
      vertex 1.62634 1.62634 20.6
      vertex 1.62634 1.62634 0
    endloop
  endfacet
  facet normal -0.77301 -0.634394 0
    outer loop
      vertex 1.62634 1.62634 20.6
      vertex 1.91238 1.27781 0
      vertex 1.91238 1.27781 20.6
    endloop
  endfacet
  facet normal -0.290285 -0.95694 0
    outer loop
      vertex 0.448708 2.25581 0
      vertex 0.880172 2.12492 20.6
      vertex 0.448708 2.25581 20.6
    endloop
  endfacet
  facet normal -0.290285 -0.95694 -0
    outer loop
      vertex 0.880172 2.12492 20.6
      vertex 0.448708 2.25581 0
      vertex 0.880172 2.12492 0
    endloop
  endfacet
  facet normal 0.471398 -0.88192 0
    outer loop
      vertex -1.27781 1.91238 0
      vertex -0.880172 2.12492 20.6
      vertex -1.27781 1.91238 20.6
    endloop
  endfacet
  facet normal 0.471398 -0.88192 0
    outer loop
      vertex -0.880172 2.12492 20.6
      vertex -1.27781 1.91238 0
      vertex -0.880172 2.12492 0
    endloop
  endfacet
  facet normal 0.88192 -0.471398 0
    outer loop
      vertex -2.12492 0.880172 20.6
      vertex -1.91238 1.27781 0
      vertex -1.91238 1.27781 20.6
    endloop
  endfacet
  facet normal 0.88192 -0.471398 0
    outer loop
      vertex -1.91238 1.27781 0
      vertex -2.12492 0.880172 20.6
      vertex -2.12492 0.880172 0
    endloop
  endfacet
  facet normal -0.995185 0.0980159 0
    outer loop
      vertex 2.25581 -0.448708 0
      vertex 2.3 0 20.6
      vertex 2.3 0 0
    endloop
  endfacet
  facet normal -0.995185 0.0980159 0
    outer loop
      vertex 2.3 0 20.6
      vertex 2.25581 -0.448708 0
      vertex 2.25581 -0.448708 20.6
    endloop
  endfacet
  facet normal -0.634394 -0.77301 0
    outer loop
      vertex 1.27781 1.91238 0
      vertex 1.62634 1.62634 20.6
      vertex 1.27781 1.91238 20.6
    endloop
  endfacet
  facet normal -0.634394 -0.77301 -0
    outer loop
      vertex 1.62634 1.62634 20.6
      vertex 1.27781 1.91238 0
      vertex 1.62634 1.62634 0
    endloop
  endfacet
  facet normal 0.0980159 -0.995185 0
    outer loop
      vertex -0.448708 2.25581 0
      vertex 0 2.3 20.6
      vertex -0.448708 2.25581 20.6
    endloop
  endfacet
  facet normal 0.0980159 -0.995185 0
    outer loop
      vertex 0 2.3 20.6
      vertex -0.448708 2.25581 0
      vertex 0 2.3 0
    endloop
  endfacet
  facet normal -0.471398 -0.88192 0
    outer loop
      vertex 0.880172 2.12492 0
      vertex 1.27781 1.91238 20.6
      vertex 0.880172 2.12492 20.6
    endloop
  endfacet
  facet normal -0.471398 -0.88192 -0
    outer loop
      vertex 1.27781 1.91238 20.6
      vertex 0.880172 2.12492 0
      vertex 1.27781 1.91238 0
    endloop
  endfacet
  facet normal 0.995185 -0.0980159 0
    outer loop
      vertex -2.3 0 20.6
      vertex -2.25581 0.448708 0
      vertex -2.25581 0.448708 20.6
    endloop
  endfacet
  facet normal 0.995185 -0.0980159 0
    outer loop
      vertex -2.25581 0.448708 0
      vertex -2.3 0 20.6
      vertex -2.3 0 0
    endloop
  endfacet
  facet normal 0.634394 -0.77301 0
    outer loop
      vertex -1.62634 1.62634 0
      vertex -1.27781 1.91238 20.6
      vertex -1.62634 1.62634 20.6
    endloop
  endfacet
  facet normal 0.634394 -0.77301 0
    outer loop
      vertex -1.27781 1.91238 20.6
      vertex -1.62634 1.62634 0
      vertex -1.27781 1.91238 0
    endloop
  endfacet
  facet normal 0.290285 -0.95694 0
    outer loop
      vertex -0.880172 2.12492 0
      vertex -0.448708 2.25581 20.6
      vertex -0.880172 2.12492 20.6
    endloop
  endfacet
  facet normal 0.290285 -0.95694 0
    outer loop
      vertex -0.448708 2.25581 20.6
      vertex -0.880172 2.12492 0
      vertex -0.448708 2.25581 0
    endloop
  endfacet
  facet normal 0.77301 -0.634394 0
    outer loop
      vertex -1.91238 1.27781 20.6
      vertex -1.62634 1.62634 0
      vertex -1.62634 1.62634 20.6
    endloop
  endfacet
  facet normal 0.77301 -0.634394 0
    outer loop
      vertex -1.62634 1.62634 0
      vertex -1.91238 1.27781 20.6
      vertex -1.91238 1.27781 0
    endloop
  endfacet
  facet normal -0.995185 -0.0980159 0
    outer loop
      vertex 2.3 0 0
      vertex 2.25581 0.448708 20.6
      vertex 2.25581 0.448708 0
    endloop
  endfacet
  facet normal -0.995185 -0.0980159 0
    outer loop
      vertex 2.25581 0.448708 20.6
      vertex 2.3 0 0
      vertex 2.3 0 20.6
    endloop
  endfacet
  facet normal -0.95694 0.290285 0
    outer loop
      vertex 2.12492 -0.880172 0
      vertex 2.25581 -0.448708 20.6
      vertex 2.25581 -0.448708 0
    endloop
  endfacet
  facet normal -0.95694 0.290285 0
    outer loop
      vertex 2.25581 -0.448708 20.6
      vertex 2.12492 -0.880172 0
      vertex 2.12492 -0.880172 20.6
    endloop
  endfacet
  facet normal -0.634394 0.77301 0
    outer loop
      vertex 1.62634 -1.62634 0
      vertex 1.27781 -1.91238 20.6
      vertex 1.62634 -1.62634 20.6
    endloop
  endfacet
  facet normal -0.634394 0.77301 0
    outer loop
      vertex 1.27781 -1.91238 20.6
      vertex 1.62634 -1.62634 0
      vertex 1.27781 -1.91238 0
    endloop
  endfacet
  facet normal -0.95694 -0.290285 0
    outer loop
      vertex 2.25581 0.448708 0
      vertex 2.12492 0.880172 20.6
      vertex 2.12492 0.880172 0
    endloop
  endfacet
  facet normal -0.95694 -0.290285 0
    outer loop
      vertex 2.12492 0.880172 20.6
      vertex 2.25581 0.448708 0
      vertex 2.25581 0.448708 20.6
    endloop
  endfacet
  facet normal -0.0980159 -0.995185 0
    outer loop
      vertex 0 2.3 0
      vertex 0.448708 2.25581 20.6
      vertex 0 2.3 20.6
    endloop
  endfacet
  facet normal -0.0980159 -0.995185 -0
    outer loop
      vertex 0.448708 2.25581 20.6
      vertex 0 2.3 0
      vertex 0.448708 2.25581 0
    endloop
  endfacet
  facet normal -0.88192 0.471398 0
    outer loop
      vertex 1.91238 -1.27781 0
      vertex 2.12492 -0.880172 20.6
      vertex 2.12492 -0.880172 0
    endloop
  endfacet
  facet normal -0.88192 0.471398 0
    outer loop
      vertex 2.12492 -0.880172 20.6
      vertex 1.91238 -1.27781 0
      vertex 1.91238 -1.27781 20.6
    endloop
  endfacet
  facet normal -0.0980159 0.995185 0
    outer loop
      vertex 0.448708 -2.25581 0
      vertex 0 -2.3 20.6
      vertex 0.448708 -2.25581 20.6
    endloop
  endfacet
  facet normal -0.0980159 0.995185 0
    outer loop
      vertex 0 -2.3 20.6
      vertex 0.448708 -2.25581 0
      vertex 0 -2.3 0
    endloop
  endfacet
  facet normal 0.995185 0.0980159 0
    outer loop
      vertex -2.25581 -0.448708 20.6
      vertex -2.3 0 0
      vertex -2.3 0 20.6
    endloop
  endfacet
  facet normal 0.995185 0.0980159 0
    outer loop
      vertex -2.3 0 0
      vertex -2.25581 -0.448708 20.6
      vertex -2.25581 -0.448708 0
    endloop
  endfacet
  facet normal 0.88192 0.471398 0
    outer loop
      vertex -1.91238 -1.27781 20.6
      vertex -2.12492 -0.880172 0
      vertex -2.12492 -0.880172 20.6
    endloop
  endfacet
  facet normal 0.88192 0.471398 0
    outer loop
      vertex -2.12492 -0.880172 0
      vertex -1.91238 -1.27781 20.6
      vertex -1.91238 -1.27781 0
    endloop
  endfacet
  facet normal -0.290285 0.95694 0
    outer loop
      vertex 0.880172 -2.12492 0
      vertex 0.448708 -2.25581 20.6
      vertex 0.880172 -2.12492 20.6
    endloop
  endfacet
  facet normal -0.290285 0.95694 0
    outer loop
      vertex 0.448708 -2.25581 20.6
      vertex 0.880172 -2.12492 0
      vertex 0.448708 -2.25581 0
    endloop
  endfacet
  facet normal -0.471398 0.88192 0
    outer loop
      vertex 1.27781 -1.91238 0
      vertex 0.880172 -2.12492 20.6
      vertex 1.27781 -1.91238 20.6
    endloop
  endfacet
  facet normal -0.471398 0.88192 0
    outer loop
      vertex 0.880172 -2.12492 20.6
      vertex 1.27781 -1.91238 0
      vertex 0.880172 -2.12492 0
    endloop
  endfacet
  facet normal 0.0980159 0.995185 -0
    outer loop
      vertex 0 -2.3 0
      vertex -0.448708 -2.25581 20.6
      vertex 0 -2.3 20.6
    endloop
  endfacet
  facet normal 0.0980159 0.995185 0
    outer loop
      vertex -0.448708 -2.25581 20.6
      vertex 0 -2.3 0
      vertex -0.448708 -2.25581 0
    endloop
  endfacet
  facet normal 0.95694 0.290285 0
    outer loop
      vertex -2.12492 -0.880172 20.6
      vertex -2.25581 -0.448708 0
      vertex -2.25581 -0.448708 20.6
    endloop
  endfacet
  facet normal 0.95694 0.290285 0
    outer loop
      vertex -2.25581 -0.448708 0
      vertex -2.12492 -0.880172 20.6
      vertex -2.12492 -0.880172 0
    endloop
  endfacet
  facet normal -0.77301 0.634394 0
    outer loop
      vertex 1.62634 -1.62634 0
      vertex 1.91238 -1.27781 20.6
      vertex 1.91238 -1.27781 0
    endloop
  endfacet
  facet normal -0.77301 0.634394 0
    outer loop
      vertex 1.91238 -1.27781 20.6
      vertex 1.62634 -1.62634 0
      vertex 1.62634 -1.62634 20.6
    endloop
  endfacet
  facet normal 0.471398 0.88192 -0
    outer loop
      vertex -0.880172 -2.12492 0
      vertex -1.27781 -1.91238 20.6
      vertex -0.880172 -2.12492 20.6
    endloop
  endfacet
  facet normal 0.471398 0.88192 0
    outer loop
      vertex -1.27781 -1.91238 20.6
      vertex -0.880172 -2.12492 0
      vertex -1.27781 -1.91238 0
    endloop
  endfacet
  facet normal 0.290285 0.95694 -0
    outer loop
      vertex -0.448708 -2.25581 0
      vertex -0.880172 -2.12492 20.6
      vertex -0.448708 -2.25581 20.6
    endloop
  endfacet
  facet normal 0.290285 0.95694 0
    outer loop
      vertex -0.880172 -2.12492 20.6
      vertex -0.448708 -2.25581 0
      vertex -0.880172 -2.12492 0
    endloop
  endfacet
  facet normal 0.77301 0.634394 0
    outer loop
      vertex -1.62634 -1.62634 20.6
      vertex -1.91238 -1.27781 0
      vertex -1.91238 -1.27781 20.6
    endloop
  endfacet
  facet normal 0.77301 0.634394 0
    outer loop
      vertex -1.91238 -1.27781 0
      vertex -1.62634 -1.62634 20.6
      vertex -1.62634 -1.62634 0
    endloop
  endfacet
  facet normal 0.634394 0.77301 -0
    outer loop
      vertex -1.27781 -1.91238 0
      vertex -1.62634 -1.62634 20.6
      vertex -1.27781 -1.91238 20.6
    endloop
  endfacet
  facet normal 0.634394 0.77301 0
    outer loop
      vertex -1.62634 -1.62634 20.6
      vertex -1.27781 -1.91238 0
      vertex -1.62634 -1.62634 0
    endloop
  endfacet
  facet normal 1 -0 0
    outer loop
      vertex -3.6 -3.6 23
      vertex -3.6 3.6 20.6
      vertex -3.6 3.6 23
    endloop
  endfacet
  facet normal 1 0 0
    outer loop
      vertex -3.6 3.6 20.6
      vertex -3.6 -3.6 23
      vertex -3.6 -3.6 20.6
    endloop
  endfacet
  facet normal -1 0 0
    outer loop
      vertex 3.6 -3.6 20.6
      vertex 3.6 3.6 23
      vertex 3.6 3.6 20.6
    endloop
  endfacet
  facet normal -1 -0 0
    outer loop
      vertex 3.6 3.6 23
      vertex 3.6 -3.6 20.6
      vertex 3.6 -3.6 23
    endloop
  endfacet
  facet normal 0 0 1
    outer loop
      vertex 3.6 3.6 20.6
      vertex 2.3 0 20.6
      vertex 3.6 -3.6 20.6
    endloop
  endfacet
  facet normal 0 0 1
    outer loop
      vertex 3.6 3.6 20.6
      vertex 2.25581 0.448708 20.6
      vertex 2.3 0 20.6
    endloop
  endfacet
  facet normal 0 0 1
    outer loop
      vertex 3.6 3.6 20.6
      vertex 2.12492 0.880172 20.6
      vertex 2.25581 0.448708 20.6
    endloop
  endfacet
  facet normal 0 0 1
    outer loop
      vertex 3.6 3.6 20.6
      vertex 1.91238 1.27781 20.6
      vertex 2.12492 0.880172 20.6
    endloop
  endfacet
  facet normal 0 0 1
    outer loop
      vertex 3.6 3.6 20.6
      vertex 1.62634 1.62634 20.6
      vertex 1.91238 1.27781 20.6
    endloop
  endfacet
  facet normal 0 0 1
    outer loop
      vertex 3.6 3.6 20.6
      vertex 1.27781 1.91238 20.6
      vertex 1.62634 1.62634 20.6
    endloop
  endfacet
  facet normal 0 0 1
    outer loop
      vertex 3.6 3.6 20.6
      vertex 0.880172 2.12492 20.6
      vertex 1.27781 1.91238 20.6
    endloop
  endfacet
  facet normal 0 0 1
    outer loop
      vertex 3.6 3.6 20.6
      vertex 0.448708 2.25581 20.6
      vertex 0.880172 2.12492 20.6
    endloop
  endfacet
  facet normal 0 0 1
    outer loop
      vertex 3.6 3.6 20.6
      vertex 0 2.3 20.6
      vertex 0.448708 2.25581 20.6
    endloop
  endfacet
  facet normal -0 0 1
    outer loop
      vertex -3.6 3.6 20.6
      vertex 0 2.3 20.6
      vertex 3.6 3.6 20.6
    endloop
  endfacet
  facet normal 0 0 1
    outer loop
      vertex 0 2.3 20.6
      vertex -3.6 3.6 20.6
      vertex -0.448708 2.25581 20.6
    endloop
  endfacet
  facet normal 0 0 1
    outer loop
      vertex -2.25581 0.448708 20.6
      vertex -3.6 3.6 20.6
      vertex -2.3 0 20.6
    endloop
  endfacet
  facet normal 0 0 1
    outer loop
      vertex -2.12492 0.880172 20.6
      vertex -3.6 3.6 20.6
      vertex -2.25581 0.448708 20.6
    endloop
  endfacet
  facet normal 0 0 1
    outer loop
      vertex -1.91238 1.27781 20.6
      vertex -3.6 3.6 20.6
      vertex -2.12492 0.880172 20.6
    endloop
  endfacet
  facet normal 0 0 1
    outer loop
      vertex -1.62634 1.62634 20.6
      vertex -3.6 3.6 20.6
      vertex -1.91238 1.27781 20.6
    endloop
  endfacet
  facet normal 0 0 1
    outer loop
      vertex -1.27781 1.91238 20.6
      vertex -3.6 3.6 20.6
      vertex -1.62634 1.62634 20.6
    endloop
  endfacet
  facet normal 0 0 1
    outer loop
      vertex -0.880172 2.12492 20.6
      vertex -3.6 3.6 20.6
      vertex -1.27781 1.91238 20.6
    endloop
  endfacet
  facet normal 0 0 1
    outer loop
      vertex -0.448708 2.25581 20.6
      vertex -3.6 3.6 20.6
      vertex -0.880172 2.12492 20.6
    endloop
  endfacet
  facet normal -0 0 1
    outer loop
      vertex 2.25581 -0.448708 20.6
      vertex 3.6 -3.6 20.6
      vertex 2.3 0 20.6
    endloop
  endfacet
  facet normal -0 0 1
    outer loop
      vertex 2.12492 -0.880172 20.6
      vertex 3.6 -3.6 20.6
      vertex 2.25581 -0.448708 20.6
    endloop
  endfacet
  facet normal -0 0 1
    outer loop
      vertex 1.91238 -1.27781 20.6
      vertex 3.6 -3.6 20.6
      vertex 2.12492 -0.880172 20.6
    endloop
  endfacet
  facet normal -0 0 1
    outer loop
      vertex 1.62634 -1.62634 20.6
      vertex 3.6 -3.6 20.6
      vertex 1.91238 -1.27781 20.6
    endloop
  endfacet
  facet normal -0 0 1
    outer loop
      vertex 1.27781 -1.91238 20.6
      vertex 3.6 -3.6 20.6
      vertex 1.62634 -1.62634 20.6
    endloop
  endfacet
  facet normal -0 0 1
    outer loop
      vertex 0.880172 -2.12492 20.6
      vertex 3.6 -3.6 20.6
      vertex 1.27781 -1.91238 20.6
    endloop
  endfacet
  facet normal -0 0 1
    outer loop
      vertex 0.448708 -2.25581 20.6
      vertex 3.6 -3.6 20.6
      vertex 0.880172 -2.12492 20.6
    endloop
  endfacet
  facet normal -0 0 1
    outer loop
      vertex 0 -2.3 20.6
      vertex 3.6 -3.6 20.6
      vertex 0.448708 -2.25581 20.6
    endloop
  endfacet
  facet normal 0 0 1
    outer loop
      vertex -3.6 -3.6 20.6
      vertex 0 -2.3 20.6
      vertex -0.448708 -2.25581 20.6
    endloop
  endfacet
  facet normal 0 0 1
    outer loop
      vertex -3.6 -3.6 20.6
      vertex -0.448708 -2.25581 20.6
      vertex -0.880172 -2.12492 20.6
    endloop
  endfacet
  facet normal 0 0 1
    outer loop
      vertex -3.6 -3.6 20.6
      vertex -2.3 0 20.6
      vertex -3.6 3.6 20.6
    endloop
  endfacet
  facet normal 0 0 1
    outer loop
      vertex -2.3 0 20.6
      vertex -3.6 -3.6 20.6
      vertex -2.25581 -0.448708 20.6
    endloop
  endfacet
  facet normal 0 0 1
    outer loop
      vertex 0 -2.3 20.6
      vertex -3.6 -3.6 20.6
      vertex 3.6 -3.6 20.6
    endloop
  endfacet
  facet normal 0 0 1
    outer loop
      vertex -1.27781 -1.91238 20.6
      vertex -3.6 -3.6 20.6
      vertex -0.880172 -2.12492 20.6
    endloop
  endfacet
  facet normal 0 0 1
    outer loop
      vertex -1.62634 -1.62634 20.6
      vertex -3.6 -3.6 20.6
      vertex -1.27781 -1.91238 20.6
    endloop
  endfacet
  facet normal 0 0 1
    outer loop
      vertex -1.91238 -1.27781 20.6
      vertex -3.6 -3.6 20.6
      vertex -1.62634 -1.62634 20.6
    endloop
  endfacet
  facet normal 0 0 1
    outer loop
      vertex -2.12492 -0.880172 20.6
      vertex -3.6 -3.6 20.6
      vertex -1.91238 -1.27781 20.6
    endloop
  endfacet
  facet normal 0 0 1
    outer loop
      vertex -2.25581 -0.448708 20.6
      vertex -3.6 -3.6 20.6
      vertex -2.12492 -0.880172 20.6
    endloop
  endfacet
  facet normal 0 1 -0
    outer loop
      vertex 3.6 -3.6 20.6
      vertex -3.6 -3.6 23
      vertex 3.6 -3.6 23
    endloop
  endfacet
  facet normal 0 1 0
    outer loop
      vertex -3.6 -3.6 23
      vertex 3.6 -3.6 20.6
      vertex -3.6 -3.6 20.6
    endloop
  endfacet
  facet normal 0 -1 0
    outer loop
      vertex -3.6 3.6 20.6
      vertex 3.6 3.6 23
      vertex -3.6 3.6 23
    endloop
  endfacet
  facet normal 0 -1 -0
    outer loop
      vertex 3.6 3.6 23
      vertex -3.6 3.6 20.6
      vertex 3.6 3.6 20.6
    endloop
  endfacet
endsolid OpenSCAD_Model
